<?xml version="1.0" encoding="iso-8859-1"?>
<!-- Generator: Adobe Illustrator 19.0.0, SVG Export Plug-In . SVG Version: 6.00 Build 0)  -->
<svg version="1.1" id="Layer_1" xmlns="http://www.w3.org/2000/svg" xmlns:xlink="http://www.w3.org/1999/xlink" x="0px" y="0px"
	 viewBox="0 0 512.005 512.005" style="enable-background:new 0 0 512.005 512.005;" xml:space="preserve">
<g>
	<g>
		<g>
			<path d="M256.003,102.405h25.6c4.71,0,8.533-3.823,8.533-8.533v-25.6c0-18.825-15.309-34.133-34.133-34.133h-25.6
				c-4.71,0-8.533,3.823-8.533,8.533v25.6C221.869,87.097,237.187,102.405,256.003,102.405z M238.936,51.205h17.067
				c9.412,0,17.067,7.654,17.067,17.067v17.067h-17.067c-9.412,0-17.067-7.654-17.067-17.067V51.205z"/>
			<path d="M315.736,102.405h25.6c18.825,0,34.133-15.309,34.133-34.133v-25.6c0-4.71-3.823-8.533-8.533-8.533h-25.6
				c-18.816,0-34.133,15.309-34.133,34.133v25.6C307.203,98.583,311.026,102.405,315.736,102.405z M324.269,68.272
				c0-9.412,7.654-17.067,17.067-17.067h17.067v17.067c0,9.412-7.654,17.067-17.067,17.067h-17.067V68.272z"/>
			<path d="M162.392,341.339h-0.085c-4.71,0-8.491,3.823-8.491,8.533s3.866,8.533,8.576,8.533c4.719,0,8.533-3.823,8.533-8.533
				S167.111,341.339,162.392,341.339z"/>
			<path d="M426.669,290.139c0-23.45,0-94.805-15.428-163.994c-0.87-3.9-4.335-6.673-8.328-6.673h-226.97L118.573,4.724
				c-2.108-4.215-7.228-5.931-11.452-3.823c-4.216,2.116-5.922,7.236-3.814,11.452l53.555,107.119h-47.77
				c-3.994,0-7.458,2.773-8.329,6.673c-15.428,69.188-15.428,140.544-15.428,163.994c0,91.221,72.004,165.743,162.133,170.231
				v34.569h-68.267c-4.71,0-8.533,3.823-8.533,8.533s3.823,8.533,8.533,8.533h153.6c4.71,0,8.533-3.823,8.533-8.533
				s-3.823-8.533-8.533-8.533h-68.267V460.37C354.665,455.882,426.669,381.36,426.669,290.139z M256.003,443.739
				c-84.693,0-153.6-68.907-153.6-153.6c0-14.276,0.026-46.703,3.627-85.333h64.64c4.71,0,8.533-3.823,8.533-8.533
				s-3.823-8.533-8.533-8.533h-62.857c1.954-16.58,4.574-33.911,8.175-51.2h280.03c13.585,65.237,13.585,131.379,13.585,153.6
				C409.603,374.832,340.705,443.739,256.003,443.739z"/>
			<path d="M216.297,204.805h159.172c4.71,0,8.533-3.823,8.533-8.533s-3.823-8.533-8.533-8.533H208.617l-13.099-29.099
				c-1.937-4.301-7.006-6.212-11.281-4.284c-4.301,1.937-6.212,6.989-4.284,11.281l76.8,170.667
				c1.425,3.166,4.531,5.035,7.791,5.035c1.169,0,2.364-0.239,3.49-0.751c4.301-1.937,6.221-6.989,4.284-11.281L216.297,204.805z"/>
			<path d="M298.925,256.005h-0.085c-4.71,0-8.491,3.823-8.491,8.533c0,4.71,3.866,8.533,8.576,8.533
				c4.719,0,8.533-3.823,8.533-8.533C307.459,259.828,303.644,256.005,298.925,256.005z"/>
			<path d="M333.059,307.205h-0.085c-4.71,0-8.491,3.823-8.491,8.533s3.866,8.533,8.576,8.533c4.719,0,8.533-3.823,8.533-8.533
				S337.778,307.205,333.059,307.205z"/>
			<path d="M247.725,392.539h-0.085c-4.71,0-8.491,3.823-8.491,8.533s3.866,8.533,8.576,8.533c4.719,0,8.533-3.823,8.533-8.533
				S252.444,392.539,247.725,392.539z"/>
			<path d="M375.683,298.672c0,4.71,3.866,8.533,8.576,8.533c4.719,0,8.533-3.823,8.533-8.533s-3.814-8.533-8.533-8.533h-0.085
				C379.463,290.139,375.683,293.962,375.683,298.672z"/>
		</g>
	</g>
</g>
<g>
</g>
<g>
</g>
<g>
</g>
<g>
</g>
<g>
</g>
<g>
</g>
<g>
</g>
<g>
</g>
<g>
</g>
<g>
</g>
<g>
</g>
<g>
</g>
<g>
</g>
<g>
</g>
<g>
</g>
</svg>
