<?xml version="1.0" encoding="utf-8"?>
<!-- Generator: Adobe Illustrator 26.5.1, SVG Export Plug-In . SVG Version: 6.00 Build 0)  -->
<svg version="1.1" id="Layer_1" xmlns="http://www.w3.org/2000/svg" xmlns:xlink="http://www.w3.org/1999/xlink" x="0px" y="0px"
	 viewBox="0 0 100 100" style="enable-background:new 0 0 100 100;" xml:space="preserve">
<style type="text/css">
	.st0{display:none;opacity:0.23;}
	.st1{display:inline;fill:#FFFFFF;}
	.st2{display:inline;}
</style>
<g class="st0">
	<path class="st1" d="M53-70.5c-27.7,0-55.5,0-83.2,0c0-250.7,0-501.3,0-752c190.8,0,381.6,0,572.4,0c0,250.7,0,501.3,0,752
		c-4.9,0-9.8,0-14.7,0c-0.4-8.7-1.4-17.4-1.2-26.1c0.5-14.6,1.7-29.1,2.6-43.6c0.4-6.2,0.8-12.4,1.3-18.5c0.9-9.6,2-19.3,3-28.9
		c0.2-2.1,0.2-4.2-3.2-3.1c-0.1-1.1-0.1-2-0.2-2.9c-0.2-2.8-0.9-3.2-3.4-2.1c-2.5,1.2-4.3,0.3-4.9-2.4c-0.2-0.7-0.1-1.5-0.4-2.2
		c-0.3-0.8-0.8-1.5-1.3-2.3c-0.4,0.7-0.9,1.3-1.2,2.1c-0.3,0.9-0.4,1.9-0.7,2.9c-0.7,2.4-1.8,2.8-3.9,1.3c-2.4-1.6-4.3-1.2-5.4,1.6
		c-0.5,1.1-0.7,2.4-0.8,3.6c-0.6,5.3-1,10.5-1.6,15.8c-0.2,1.5-1.2,2.9-1.8,4.4c-0.4,1-0.7,2.1-0.8,3.2c-0.1,1.6,0.2,3.3,0,4.8
		c-0.8,4.4-2.2,8.6-1.7,13.1c0.2,1.5-0.8,3.1-1.3,4.7c-0.2,0.6-0.4,1.2-0.5,1.9c-0.1,3.4,0.1,6.8-0.1,10.2c-0.1,1.4-0.9,2.7-1.3,4
		c-0.3,1-0.8,2.2-0.5,3.1c0.7,2.9,0.1,3.9-2.9,4.1c-3.2,0.2-6.3,0.7-9.6,1c2.6,2.5,5.4,3,9.3,1.8c2.2-0.7,3-0.2,3,2.2
		c-0.1,3.9-0.3,7.8-0.6,11.6c-0.1,1.5-0.5,2.8-2.4,3.2c-0.7,0.1-1.6,1-1.8,1.7c-0.7,1.8-2,2.5-3.8,2.5c-0.6,0-1.3,0.2-1.9,0.3
		c1.7,0.9,3.4,1.4,5.1,2c1.7,0.6,2.6,0.1,2.9-1.8c0.2-1.1,0.7-2.1,1.1-3.1c0.3,0.1,0.7,0.1,1,0.2c0,1.3,0.5,3.1-0.1,3.9
		c-1.7,2.2-0.7,3.5,0.6,5.2c1.7,2.2,0.9,4-1.7,4.8c-0.8,0.3-1.6,0.6-2.7,1c3.3,2.7,4.3,5.7,4,9.4c-0.2,1.8-0.1,3.6-0.1,5.3
		c-21,0-42.1,0-63.1,0c1.1-1.6,2.3-3.1,3.2-4.7c1.7-3.1,2.8-6.8,5-9.5c2.4-2.9,3.6-5.9,4.2-9.5c0.1-0.9,1.3-1.7,2-2.5
		c0.8-0.9,2.1-1.8,2.2-2.9c0.5-4.6,2.4-8.7,4.5-12.6c1.7-3.3,3.1-6.5,3.6-10.2c0.2-1.6,1.2-3.1,1.6-4.7c1.2-3.9,2.4-7.9,3.5-11.8
		c0.2-0.9,0.4-1.7,0.7-2.6c0.9-2.9,2-5.7,2.7-8.5c1.4-5.4,2.6-10.8,3.8-16.3c0.5-2.4,1.1-4.7,1.5-7.1c0.6-3.5,0.5-7.2,1.5-10.5
		c2-6.7,1.3-13.5,1-20.3c-0.1-2.8-1.1-5.6-1.6-8.5c-0.2,0-0.5,0-0.7,0c-0.5,1.3-1.1,2.6-1.6,4c-0.8-1.1-1-2.2-1.2-3.3
		c-0.2-1-0.4-2.1-0.9-3c-0.4-0.6-1.4-0.9-2.1-1.3c-0.4,0.8-1.1,1.6-1.3,2.4c-0.2,0.8,0.4,1.8,0.3,2.6c-0.1,0.8-0.7,1.6-1.1,2.3
		c-0.4-0.7-1-1.3-1.3-2.1c-0.3-0.6-0.2-1.3-0.4-1.9c-1-2.3-2-4.5-3.1-6.7c-0.3-0.5-0.6-1.1-0.9-1.7c-2,1.3-3.1,2.7-2.6,5
		c0.2,0.9,0.2,2-0.1,2.9c-0.4,1-1.2,1.7-1.8,2.6c-0.6-0.7-1.5-1.4-1.9-2.2c-0.6-1.3-1-2.7-1.5-4.1c-0.6-1.7-0.9-3.6-2-4.9
		c-1.5-1.8-2.3-3.2-0.2-5.1c-2.7-1.6-5.2-1.4-7.7-0.5c-0.6,0.2-1,1-1.3,1.6c-0.1,0.3,0.4,1,0.8,1.2c6.3,2.7,8,8.2,8.5,14.3
		c0.4,6.4,0.9,12.7-0.7,19.2c-1.7,6.4-2.3,13.1-3.5,19.7c-0.6,3.4-1.5,6.8-2.5,10.2c-2.4,8.1-4.7,16.2-7.3,24.3
		c-1.5,4.7-3.5,9.3-5.3,13.9c-1.5,3.8-2.7,7.7-4.4,11.4c-2.8,6.2-5.8,12.4-8.9,18.4c-2.4,4.6-5,9.1-7.5,13.6
		c-1.9,3.3-3.9,6.6-5.8,9.8c-91,0-182,0-273,0c0-0.3,0-0.7-0.1-1c-2.8-9.1-2.5-18.5-1.5-27.8c0.6-5.3,1.9-10.5,1.9-15.7
		c-0.2-11.5-1-23.1-1.6-34.6c-0.6-11.5-2-23.1-0.2-34.6c1.7-10.7,7.1-18.9,16.7-24.2c2-1.1,3.9-2.3,5.8-3.4
		c-0.1-0.2-0.1-0.4-0.2-0.6c-1.3,0.2-2.7,0.2-4,0.6c-7.5,2.1-13.8,6.6-20.3,10.5c-4.2,2.6-8,5.8-12.9,7.2c-0.8,0.2-1.3,1.5-1.9,2.3
		c-1.6,2.3-3,4.8-4.8,6.9c-1,1.2-1.1,2-0.5,3.3c0.3,0.7,0.6,1.9,0.3,2.4c-1.2,1.7-2.6,3.3-1,5.5c0.1,0.1,0,0.3,0,0.5
		c-0.2,3.6-0.4,7.1-0.7,10.7c-0.1,2-0.4,4-0.5,6c-0.3,8-0.6,16.1-0.8,24.1c-0.2,6.8-0.7,13.6-0.4,20.4c0.5,13.8,1.4,27.6,2.2,41.5
		c-11.3,0-22.5,0-33.8,0c0.3-1.4,0.4-2.9,0.8-4.2c0.8-2.4,2.4-4.7,2.4-7.1c0.1-6.9,3.7-13.2,2.9-20.1c-0.1-0.6,0.5-1.2,0.6-1.8
		c0.9-3.3,1.8-6.7,2.4-10c0.5-2.5,0.3-5.2,0.6-7.8c0.6-4.2,1.3-8.4,1.9-12.5c0.3-2,0.4-4.1,0.6-6.1c0.5-4.1,1.3-8.2,1.5-12.3
		c0.4-9.1,0.5-18.2,0.7-27.3c0-0.7-0.2-1.3-0.3-2.5c-5.1,3.6-10.4,5.8-14.4,10.2c-2.5,2.8-5.2,5.6-6.1,9.3c-1.8,7.3-3.5,14.6-4.4,22
		c-1.7,13.7-2.5,27.4-4.1,41.1C56.6-89.9,54.6-80.2,53-70.5z M306.4-572.9c0.9-0.4,1.5-0.5,2.1-0.8c3.4-2,4.1-5.5,4.1-8.8
		c0.1-2.9,0.7-5.3,2.2-7.6c1.3-1.9,2.3-3.7,1.4-6.1c-0.2-0.5,0.4-1.7,1-2.1c0.3-0.2,1.4,0.3,2,0.8c0.5,0.4,0.8,1,1.1,1.6
		c0.8,1.5,2,1.6,3.2,0.6c0.8-0.6,1.5-1.5,2.4-2.1c0.7-0.4,1.7-1,2.4-0.8c2.1,0.6,4.1,1.6,6.1,2.4c3.9,1.6,7.7,4,11.8,4.4
		c5.9,0.7,9.3,4.1,11.9,8.7c3.5,6.1,6.4,12.4,9.9,18.5c3,5.2,5.2,10.6,6.8,16.3c0.2,0.8-0.3,1.9-0.3,2.8c0,1.3,0,2.7,0.2,4
		c0.3,1.7,1.2,3.4,1.2,5c0.2,5.7,1.5,11.1,3.8,16.2c2.7,5.8,5.8,11.5,8.1,17.5c2,5.2,3.3,10.8,4.2,16.3c1.6,9.3,2.6,18.7,3.9,28
		c0.8,6.2,1.7,12.4,2.6,18.6c0.1,0.4,0.2,0.8,0.3,1.2c1.5,5.7,3.7,11.3,3.2,17.4c-0.3,2.9,0,5.9,0,8.8c0,0.9,0.2,1.8,0.3,2.6
		c0.8-1.7,1.4-3.4,2.4-4.7c1.6-1.9,3-0.4,4.6,1.5c-0.1-1.1,0-1.7-0.2-2c-3.5-6.1-2.1-12.1,0-18.1c1.3-3.6,2.2-7.3,3.2-11
		c0.8-3.1,1-6.3,2-9.3c1.1-3.3,2.8-6.4,4.5-9.4c2-3.5,2.5-7.2,2.2-11c-0.2-4-0.9-7.9-1.4-11.8c0-0.4,0.4-1.3,0.7-1.4
		c2.3-0.5,2.2-2.3,2.5-4c0.7-3.7,0.9-7.5,2.3-10.9c1.3-3.1,1.6-6.1,1.6-9.2c0.1-6.7,1-13.3,3.1-19.7c0.9-2.6,1-5.6,1.2-8.4
		c0.2-2.6-0.2-5.2,0-7.8c0.2-3.2,0.2-6.2-1.9-8.8c-0.4-0.5-1.1-0.7-1.7-1c-0.2,0.7-0.6,1.3-0.6,2c-0.1,0.7,0.3,1.5,0.1,2.1
		c-0.2,0.6-1,1.1-1.5,1.6c-0.2-0.7-0.7-1.4-0.6-2c0.3-1.4,1-2.8,1.3-4.2c0.2-1.4,0.1-2.9-0.1-4.3c-0.3-1.6-0.8-3.2-1.2-4.8
		c-0.2-0.8-0.1-1.7-0.5-2.4c-1.5-2.6-1.1-5.1-0.4-7.8c1.1-4.2,1.6-8.4-0.7-12.3c-2.2-3.7-4.8-7.1-7.1-10.7c-0.5-0.8-1.3-1.6-1.4-2.5
		c-0.8-5.8-3.4-10.6-7.7-14.5c-3.3-3-7.2-5.1-11.5-6.1c-4.7-1.1-9.6-1.3-14.3-2.2c-1.9-0.3-3.8-1.2-5.2-2.4
		c-0.7-0.6-0.4-2.4-0.7-3.6c-0.2-0.8-0.8-1.6-1.4-2c-1.6-0.9-2.1-1.7-1.1-3.5c0.4-0.7,0.1-2.2-0.4-2.9c-0.6-1-1.7-1.7-2.8-2.3
		c-2.6-1.4-5.3-2.5-7.8-3.8c-5-2.7-9.5-6.2-15.1-8.2c-4.4-1.6-8.2-5.5-11.6-9c-2.7-2.7-5.5-4.4-9.2-4.7c-3.4-0.3-4.9-1.6-5.9-4.9
		c-0.2-0.6-0.9-1.1-1.3-1.6c-1.2-1.4-2.8-2.5-3.6-4.1c-0.7-1.5-1.1-3-3.1-2.6c-1.5,0.3-3.2,0.3-4.3,1.1c-2.7,1.8-6.3,1.3-7.9-1.5
		c-2.2-3.7-6.4-4.7-9.6-7.1c-0.2-0.1-0.5-0.1-0.7-0.1c-1.8,0.4-2.8-0.5-3.2-2.2c-0.4-1.6-1.6-2.4-3.1-2.1c-2.1,0.4-4.1,1.2-6.2,1.8
		c-5.4,1.6-10.6-0.2-15.9-0.6c-0.6,0-1.1-0.9-1.8-1.2c-1.1-0.5-2.2-1.1-3.3-1.2c-4-0.3-7.9-0.4-11.9-0.6c-4.8-0.3-9.7-1.1-13.9,2.1
		c-2.4,1.8-4.6,3.9-6.7,6c-4.2,4.2-8.3,8.4-14.6,9.7c-2.2,0.4-4.3,2.1-6.4,3.3c-1.4,0.8-2.4,2.3-3.9,2.8c-2.2,0.7-3.3,1.7-4.1,4.1
		c-0.7,1.9-2.9,3.4-4.7,4.6c-0.3,0.2-2.2-1.6-3.2-2.6c-1.4-1.4-2.2-0.6-2.6,0.8c-0.5,1.7-1.7,2-3,1.6c-3.1-1.1-4.7,0.7-6.4,2.7
		c-2.3,2.7-4.6,5.5-7.2,8c-1.7,1.7-4.2,2.6-5.7,4.4c-2.7,3.3-6.3,5-10,6.7c-0.9,0.4-1.9,1.1-2.5,1.8c-1.5,2-2.1,4.8-5,5.6
		c-0.3,0.1-0.4,0.7-0.6,1c-1.1,2-2.5,2.3-4.7,1.4c-1.1-0.5-2.5-0.7-3.6-0.4c-1.3,0.3-2.4,1.3-3.5,2c-3.1,2.1-5.1,1.5-6.3-2
		c-0.2-0.5-0.5-0.9-0.8-1.3c-0.2,0-0.5,0-0.7,0c-0.3,1.5-0.6,3-0.8,4.6c-0.4,6.3-0.7,12.7-1.2,19c-0.1,1-0.7,2-1.2,2.9
		c-1.7,2.8-3.5,5.5-5.3,8.2c-1.4,2.3-2.6,4.7-4.3,6.8c-3.5,4.4-7.2,8.6-10.8,12.9c-0.7,0.8-1.1,1.8-1.4,2.8c-1,4.2-2.1,8.4-2.9,12.6
		c-0.8,4.6-1.3,9.3-2.1,14c-1,6-2.3,12-3.1,18.1c-0.5,3.8-0.5,7.6-0.1,11.4c0.3,3.5,1.8,6.9,1.8,10.3c0.2,9.3,0,18.5,2.2,27.7
		c2,8.1,2.7,16.5,4.2,24.8c0.5,2.5,1.4,5.1,2.6,7.3c2,3.6,4.6,6.9,6.8,10.4c2.6,4.2,5,8.4,5,13.6c0,2.8,1.2,5.1,3,7.2
		c1.4,1.6,2,3.6,0.9,5.6c-1.6,3-2.5,6.1-2.3,9.6c0.1,1.1-0.7,2.3-1.1,3.4c-0.5,1.4-1.1,2.9-1.7,4.3c-0.8,1.8-1.3,4-2.7,5.2
		c-2.2,1.9-3.2,3.1-2.4,5.7c1.1,3.8,3.7,6.1,7.1,7.1c0.7-4.9,1.5-9.6,2-14.5c0.4-4.3,1.4-8.3,4.1-11.7c1.5-1.9,2.4-1.8,3.4,0.3
		c0.7,1.5,1,3.1,1.7,4.5c0.4,0.7,1.5,1,2.3,1.5c0.4-0.7,1-1.4,1.2-2.1c0.2-0.8,0-1.6,0.1-2.4c0.5-11.8,1.2-23.6,1.5-35.4
		c0.3-10.5,0.1-21,0.3-31.5c0.1-5.8,0.4-11.7,0.8-17.5c0.1-1.7,0.6-3.4,1.3-4.9c2.9-6.3,6.2-12.4,8.7-18.8c2-5,3-10.4,4.4-15.7
		c0.2-0.7-0.3-1.5-0.4-2.3c-0.5-3.9-1.4-7.7-1.2-11.6c0.3-5.1,1.6-10.1,2.1-15.1c1-8.7,3-17,7.6-24.5c0.6-1,1.3-1.9,2.1-2.6
		c2.2-1.9,4.4-3.8,6.8-5.5c0.9-0.6,2.3-0.6,3.5-0.9c0.7-0.2,1.6-0.3,1.9-0.8c2.4-4,5.9-6.6,9.6-9.2c1.4-0.9,2-0.4,2.3,1.1
		c0.5,2.9,0.9,3.1,3.3,1.2c0.3-0.3,0.7-0.5,0.9-0.8c1.9-2.3,3.4-5.1,7.1-4.8c0.2,0,0.4-0.3,0.6-0.4c3.4-1.2,6.8-2.4,10.3-3.4
		c0.4-0.1,1,0.3,1.6,0.5c-0.3,1-0.6,1.8-0.9,2.6c2.4,1.1,4,0.4,4.3-1.7c0.2-1.2-0.6-3,1.3-3c0.4,0,0.9,2.2,1.3,3.4
		c0,0.1,0,0.2,0,0.2c-0.9,5.3,1.8,9.6,3.8,14.1c0.9,2,1.9,4,3.3,5.7c4.5,5.3,8.4,11.2,14.7,14.8c2.6,1.4,5,3.5,8.4,1.9
		c1.7-0.8,4,0.9,3.9,2.9c-0.1,3-0.9,5.8-4,7c-1.6,0.6-1.3,1.8-1,2.8c0.2,0.7,1,1.3,1.5,2c0.7-0.6,1.5-1.2,2-1.9
		c1.2-1.8,2.1-3.8,3.4-5.5c1.7-2.2,3.6-4.1,5.3-6.2c2.3-2.7,4.3-2.8,6.6-0.1c1.3,1.5,2.5,3.4,4.1,4.5c2.5,1.8,5.2,3.3,7.9,4.6
		c0.6,0.3,1.9-0.9,2.9-1.4c-0.5-0.5-0.9-1.2-1.6-1.5c-6.1-2.5-10.8-6.2-12.4-13c-0.2-0.9-0.3-2.2-1-2.7c-3-2.1-1.8-4.6-1.2-7.2
		c0.5-2.4,0.8-4.8,1.3-7.1c0.2-0.9,0.6-1.7,0.9-2.6c0.7,0.5,1.7,0.9,2.2,1.6c1,1.7,1.9,1.4,3.3,0.4c2.4-1.8,3.1-5,6-6.5
		c2.4-1.2,3-1.6,4.5,0.9c2.5,4.2,5,8.4,7.3,12.7c2.9,5.5,7.3,9.6,12.3,13c2.8,1.9,7.3,1.9,9.8-0.7c0.5-0.5,1-1.3,0.9-1.8
		c-0.1-0.4-1-0.9-1.7-1c-1.7-0.2-2.9-0.9-2.6-2.7c0.4-1.8,1.8-2.7,3.6-2.7c2,0,2,1.4,2,2.9C306.3-574.4,306.4-573.9,306.4-572.9z
		 M166.1-439.4c0.1,0.3,0.1,0.6,0.2,0.9c1.1,0,2.3,0.3,3.3-0.1c3.3-1.2,6.4-0.3,9.6,0.3c0.5,0.1,1,0.2,1.5,0.2
		c10.6-0.2,21.3,0.5,31.2-4.1c4.8-2.2,9.6-4.5,13.9-7.5c3.5-2.4,6.4-5.7,9.5-8.7c0.5-0.4,0.8-1.4,0.7-2c-0.3-2.4-0.7-4.8-1.3-7.1
		c-0.4-1.5,0.2-1.9,1.4-1.7c0.7,0.1,1.5,0.7,1.8,1.4c0.8,1.3,1.7,2.5,3.4,2.1c1.7-0.4,2.5-1.7,2.7-3.4c0.3-2.4,0.7-4.6,2.6-6.4
		c0.5-0.5,0.3-2.1-0.1-2.8c-1.1-2-2.4-4.1-4-5.8c-2.7-2.9-2.9-5.5-0.9-8.9c2.1-3.6,2.2-7.9-0.3-11.3c-3.1-4.2-7.6-6.9-12.2-9.4
		c-5-2.7-10.3-3.2-15.8-3.3c-4.2,0-8.5-0.2-12.7,0.3c-5.4,0.6-10.7,2.4-16,2.3c-6.9-0.1-12.3,1.6-16.8,6.9
		c-3.3,3.9-7.2,7.3-10.5,11.2c-2.1,2.5-3.8,5.5-5.5,8.2c-0.2,0.4-0.1,0.9-0.2,1.4c-0.4,2.3-0.8,4.5-1.2,6.8c-0.3,1.3-0.7,2.7-0.8,4
		c0,0.6,0.5,1.7,0.9,1.7c0.6,0.1,1.6-0.3,2-0.8c2-2.1,3.8-4.3,5.7-6.6c0.3-0.4,0.4-0.9,0.6-1.3c0.9-1.4,1.6-3.3,2.9-4
		c4.9-2.8,10-5.3,15-7.8c0.3-0.2,0.8-0.1,1.2-0.2c3.9-1,7.9-2.1,11.8-2.9c1.6-0.3,3.4,0,5,0.4c1.4,0.4,2.6,1.5,4.1,2
		c1.3,0.5,1.9,1.2,2.6,2.4c1.4,2.2,1.7,5.5,5.2,6.1c0.7,0.1,1.2,1.3,1.8,2c-0.7,0.5-1.3,1.1-2.1,1.4c-1,0.4-2.1,0.4-3.1,0.7
		c-2.1,0.6-4.2,1.4-6.4,2.1c0,0.3,0,0.7,0,1c1.6,0.2,3.2,0.5,4.8,0.5c2.3,0,4.6-0.2,6.5,1.5c0.6,0.5,1,1.1,1.6,1.7
		c-0.7,0.6-1.4,1.3-2.3,1.7c-0.5,0.3-1.3,0.1-1.9,0.1c-4.5,0.4-9.3,0.1-13.6,1.4c-6.6,2-12.9,5.1-19.4,7.7c-1.2,0.5-2.5,0.7-3.7,1
		c0.6-1.2,1-2.5,1.9-3.4c1.6-1.9,3.2-4.1,5.3-5.3c2.6-1.5,5.7-2.1,8.6-3.1c2.2-0.8,4.4-1.7,6.6-2.5c-0.8-2-2-1.8-3.3-1.3
		c-4.1,1.5-8.2,3-12.3,4.6c-1.6,0.6-3.2,1.3-4.6,2.2c-2.1,1.3-4.4,2.6-5.9,4.5c-1.2,1.6-2,2.4-4,2.4c-2.3,0-2.7,0.8-1.6,2.9
		c1.5,3,0.9,4.3-2.1,5c0.1,4.9,1.3,6.8,5,7.2c1.5,0.2,3.7,0,4.6-0.9c2.8-3,7.1,0.3,9.7-2.8c0.1-0.1,0.4-0.1,0.5,0
		c2.5,1.7,5.3,1.8,8.1,1.9c0.5,0,1.1,0.5,1.4,0.9c1.2,1.8,2.5,1.7,4.4,1c1-0.4,2.5,0.2,3.8,0.6c0.2,0,0,1.1,0.1,1.7
		c-1.2,0-2.6,0.3-3.7-0.1c-1.5-0.5-2.4-0.5-3.8,0.4c-2.6,1.8-5.5,3-9,2c-2.3-0.7-4.7-1.3-7.1-1.5c-1.9-0.2-3.8,0.2-5.7,0.4
		c0,0.3,0,0.7,0,1c1.1,0.3,2.3,0.5,3.4,0.8c1.4,0.3,2.9,0.3,4.3,0.8c0.6,0.2,1.4,1.2,1.3,1.7c-0.1,0.7-0.9,1.5-1.6,1.8
		C170.7-440.7,168.4-440.1,166.1-439.4z M236.1-250.6c0.2-1.2,0.2-2,0.5-2.6c1.1-2.1-0.1-2.7-1.9-3.1c-1.6-0.3-3.1-0.8-4.7-1.3
		c-2.6-0.8-4.1-0.1-5,2.4c-1,2.7-5.7,3.7-7.7,1.7c-1.3-1.3-0.9-2.4,0.9-3c2.8-0.8,3.6-2.2,2.8-5c-0.2-0.7-0.8-1.6-1.4-1.8
		c-0.5-0.2-1.5,0.4-1.9,1c-2.6,2.8-5.1,2.4-6.7-1.1c-0.4-0.9-1.5-1.7-2.5-2.3c-1.6-1-3.3-1.8-4.9-2.8c-1-0.7-1.7-1.9-2.7-2.4
		c-1.2-0.6-2.6-0.7-3.9-0.9c-0.1,0-0.6,1-0.5,1.2c0.9,1.3,1.9,2.5,2.9,3.7c0.2,0.2,0.6,0.1,0.9,0.2c3.9,0.8,4.7,2.1,3.8,6.1
		c0.7,0.2,1.5,0.4,2.2,0.8c1.3,0.7,2.7,1.2,3.7,2.2c0.5,0.4,0.6,2,0.2,2.4c-1.6,1.8-7.7,0.2-8.4-2c-1.1-3.5-1.1-3.6-5.1-3.1
		c-1.6,0.2-2.9,0-3.3-2.1c0.5-0.1,0.9-0.1,1.3-0.2c1-0.1,2.1,0.1,2.8-0.4c0.5-0.3,0.7-2.1,0.3-2.4c-0.7-0.6-1.9-0.8-2.8-0.8
		c-3.6,0.1-5.1-1.1-5.2-4.7c0-1.8-0.5-2.5-2.4-2.9c-1.9-0.4-3.7-1.5-5.3-2.7c-1.1-0.8-1.2-2-0.5-3.6c0.7-1.7,0.2-3.9,0.1-5.8
		c0-0.2-0.7-0.6-0.9-0.5c-2,0.9-3.4-0.1-5-1c-0.5-0.3-1.5-0.1-2.1,0.2c-1.9,1-3.9,2-5.7,3.3c-2.1,1.5-2.1,2.9-0.5,4.9
		c2,2.5,4.4,4.9,5.8,7.8c1.6,3.4,4.5,5.4,7.3,7.2c4.9,3.1,7.2,7.7,9.7,12.4c0.2,0.3,0.2,0.8,0.1,1.2c-0.5,2.2,0.4,3.6,2.4,4.5
		c0.6,0.3,1.1,0.9,1.5,1.5c1.8,2.8,4.3,5.3,4.2,9.1c0,0.6,0.2,1.3,0.6,1.8c1.4,2.1,2.9,4.1,4.4,6c0.3,0.4,1.3,0.7,1.7,0.4
		c2.5-1.3,3.8,0.1,5.1,1.9c1.1,1.6,2.4,2.8,4.7,2.2c1.5-0.4,2.2,0.5,2.4,2c0.1,0.8,0.6,2.1,1,2.1c0.9,0,1.9-0.5,2.8-0.9
		c0.7-0.3,1.4-1.3,1.9-1.2c2.4,0.5,5,1,7.2,2.1c1.6,0.8,2.8,1.1,4.1-0.2c1.1-1.2,2.3-1.4,3.9-0.8c1,0.4,2.4-0.3,3.7-0.3
		c1-0.1,2.7-0.4,3,0.1c1.4,2.3,2.8,2.8,5.1,1.1c0.5-0.4,2.1,0.6,3.1,1c-0.4,0.7-0.8,1.6-1.4,2.2c-0.5,0.5-1.5,0.6-1.8,1.1
		c-0.7,1.1-1.4,2.4-1.3,3.6c0.1,0.7,1.8,1.6,2.8,1.7c2,0.1,3.5,0.6,5,2c2.3,2.1,4.8,1.3,6.2-1.5c0.3-0.6,1-1.3,1.6-1.3
		c2.1-0.2,4.4-0.6,6.4-0.1c1,0.3,1.3,2.6,2.3,3.6c0.8,0.9,2.2,1.9,3.2,1.8c2.1-0.2,3.5-2.5,3-4.1c-1-3.6,0.1-5.7,3.6-7.4
		c2.4-1.1,4.9-2.2,6.8-3.9c2.2-2,2-5.8,5.2-7.2c0.1,0,0.1-0.1,0.1-0.2c1.5-2,3.1-3.9,4.6-5.9c0.2-0.2,0.5-0.4,0.8-0.5
		c3-1.3,6.1-2.5,9.1-3.9c0.9-0.4,1.8-1,2.3-1.8c0.7-1,1.7-3,1.4-3.3c-1-1-2.5-1.4-3.9-1.8c-0.5-0.2-1.1,0.2-1.6,0.3
		c-2.1,0.7-2.9-0.2-2.9-2.2c0-0.7,0-1.5,0-2.2c-0.4-3.1-2.8-5-5.9-4.6c-1.2,0.1-2.4-0.1-3.6-0.1c-1.3,0-2.6,0-3.8,0.4
		c-2.8,1-5.5,2-8.5,0.8c-0.9-0.3-2.1,0.2-3.1,0.1c-1.2-0.1-2.6-0.1-3.5-0.7c-2.2-1.7-2.2-4.6-0.5-6.9c0.4-0.6,0.9-1.7,0.6-2.3
		c-0.6-1.7-3.7-2.8-6-2.1c-2,0.6-3.6,2-3.5,4.2c0.2,3.2-1.4,6.7,1.3,9.6c0.1,0.1,0.1,0.5,0.1,0.7c0.6,2.8,1.3,5.6,1.8,8.3
		c0.2,1,0,2.1,0,3.2c-0.3,0.1-0.7,0.3-1,0.4c-0.7-1-1.7-2-2.1-3.1c-1.7-5.5-3-6.5-8.6-7.3c-3.2-0.5-6.5-1.2-9.2-2.8
		c-2.4-1.4-4.4-1.7-6.8-1C240.7-251.8,238.7-251.3,236.1-250.6z M316.6-484c-0.1-0.2-0.1-0.5-0.2-0.7c1.2-0.6,2.2-1.4,3.5-1.7
		c2.3-0.6,4.6-0.9,6.9-1.5c0.7-0.2,1.2-0.8,1.8-1.3c-0.6-0.4-1.2-1-1.9-1c-3.9-0.2-7.8-0.3-11.7-0.4c-2.7,0-3.8-1.7-2.5-4.1
		c0.3-0.5,0.5-1,0.6-1.6c0.8-4.1,0.8-4,4.8-4.8c0.7-0.1,1.4-0.3,2.1-0.6c4.2-1.5,8.1-3.8,12.9-2.8c3,0.7,6.1,1,9,1.8
		c3.6,0.9,7.1,2.1,10.6,3.2c1.6,0.5,2-0.2,1.9-1.7c-0.1-1.4-0.7-3.2,1.3-3.7c2.1-0.6,2.2-1.6,1.2-3.2c-0.3-0.5-0.6-1-0.6-1.6
		c-0.2-2-1.1-2.9-3.3-2.4c-1.4,0.4-2.5-0.4-2.6-1.8c-0.1-2.9-2.1-3.5-4.3-3.7c-4.4-0.5-8.7-0.8-13.1-1c-3.6-0.2-7.1,0.1-10.7-0.1
		c-4.5-0.3-9-0.5-13.4-1.3c-6.7-1.1-12.6,2-18.8,3.2c-0.3,0.1-0.6,0.3-0.8,0.5c-2.2,2.2-4.4,4.4-6.4,6.7c-1.3,1.5-1.8,3.2,0,5
		c0.8,0.8,1.3,2.1,1.4,3.3c0.5,4.4,0.4,4.4,4.7,5.7c0.6,0.2,1.4,0.8,1.5,1.3c0,0.7-0.4,1.8-0.9,2c-3.5,1-4.9,4.1-7.3,6.3
		c-2.3,2.1-2.7,4.7-2,7.6c0.5,1.9,1.5,3,3.4,2.7c3-0.5,4.4,1,5.1,3.6c0.3,1,0.9,1.9,1.2,2.9c0.5,1.9,1.6,2.5,3.4,2.4
		c1.5-0.1,3-0.2,4.4,0.1c0.9,0.2,1.7,1.1,2.5,1.6c-0.9,0.4-1.9,1.2-2.7,1.2c-1.7-0.2-3.4-1.1-5.2-1.3c-0.9-0.1-2,0.6-3,0.9
		c0.3,0.9,0.4,2.2,1,2.7c3.2,2.6,6.1,5.9,10.2,7.4c4.3,1.6,8.6,3.8,13,4.5c6.3,1,12.8,1.3,19.2,1.3c3.5,0,7-1,10.5-1.6
		c1.4-0.2,2.8-0.5,4.2-0.9c0.8-0.2,1.6-0.7,2.4-1.1c-0.8-0.3-1.6-0.9-2.4-1c-1.3-0.1-2.7,0.4-4,0.3c-2.9-0.3-5.8-0.9-8.6-1.3
		c-0.8-0.1-1.5-0.4-2.2-0.6c0-0.2,0.1-0.4,0.1-0.5c0.9-0.4,1.8-0.8,2.8-1.2c-0.9-0.9-1.7-1.1-2.5-1.4c-2.2-1-2.3-2.4-0.5-3.8
		c0.5-0.4,0.7-1.2,1.1-1.7c0.5-0.6,1-1.5,1.7-1.7c1.4-0.3,2.9-0.3,4.4-0.3c2.2,0,4.2-0.2,6.2-1.6c1.2-0.9,3-0.9,4.6-1.1
		c2.2-0.2,4.4,0,7.1,0c-1.4-3.1-2.7-5.4-5.2-6.6c-3.4-1.6-6.8-3-10.4-4.3c-3-1.1-6-2.3-9.1-2.8c-4.9-0.8-9.8-1.1-14.8-1.7
		C317.7-483.5,317.1-483.8,316.6-484z M307.7-352.9c2.9-1.9,4.3-1.3,5.2,1.9c0.8,3.1,1,6.1-0.3,9.1c-0.5,1.2-0.6,2.5,1.3,2.1
		c2.6-0.7,5.2-1.3,7.5-2.6c3.2-1.8,6.3-3.8,8.9-6.3c2.1-2,3.6-4.7,5.1-7.3c0.3-0.5-0.4-2-1-2.4c-0.7-0.4-1.9-0.2-2.8-0.1
		c-2.7,0.2-5.5,1-8,0.6c-6-1.1-12.4-0.5-17.8-3.9c-0.2-0.1-0.5-0.1-0.7-0.1c-2.8,0.2-5.6,0.2-8.4,0.6c-2,0.3-3.5-0.1-4.8-1.6
		c-1.3-1.5-2.9-1.4-4.7-0.7c-0.9,0.4-2,0.3-3.1,0.4c-3.1,0.3-6.2,0.7-9.3,1c-0.2,0-0.5,0.3-0.5,0.5c-0.8,2.3-2.1,2-3.7,0.9
		c-0.6-0.4-1.6-0.3-2.4-0.4c-1.9-0.2-3.9-0.2-5.8-0.4c-3.4-0.5-6.8-1.9-10.1-1.5c-8.5,1-17.1,0.1-25.4,2.5c-2.2,0.6-4.6,0.4-6.7,1.2
		c-8,3-16.2,4.5-24.7,4.1c-0.7,0-1.8-0.3-2.1-0.8c-0.3-0.5,0.2-1.5,0.4-2.2c0.5-1.4,1.4-2.7,1.5-4c0.1-4.5,0.2-4.6,4.5-4.3
		c1,0.1,2.3-0.6,2.8-1.3c0.3-0.4-0.3-1.9-0.9-2.6c-0.8-1-1.8-1.8-2.9-2.8c0.2-0.4,0.5-0.9,0.6-1.5c0-1.3-0.1-2.5-0.2-3.8
		c-1.1,0.1-2.3,0.1-3.4,0.3c-1.4,0.2-1.7,1.2-1.6,2.5c0.1,0.9,0,1.9-0.4,2.6c-0.5,0.7-1.4,1.1-2.2,1.6c-0.4-0.6-0.9-1.2-1.2-1.9
		c-0.3-0.6-0.2-1.3-0.5-1.9c-0.7-1.8,0.1-2.6,1.8-3.2c0.9-0.3,1.5-1.3,2.1-2.1c0.5-0.7,0.9-1.5,1.4-2.2c0.6-0.9,1.5-1.6,1.8-2.5
		c0.9-2.4,2.7-3.5,5-4.1c0.8-0.2,1.9-0.7,2.2-1.3c1.3-3.7,2.6-7.5,3.6-11.4c0.5-1.8-0.4-2.5-2.2-1.7c-2,0.9-4,1.9-5.8,3.1
		c-2.1,1.3-4.2,2.7-5.9,4.5c-3.3,3.6-6.3,7.6-9.5,11.4c-2.3,2.6-4.2,5.4-4.4,9c-0.1,0.9-0.4,1.7-0.7,2.6c-2.2,5.1-3.6,10.4-3.1,16
		c0.2,2.2,1.8,3,3.9,2.2c0.6-0.2,1.2-0.3,1.8-0.5c1-0.3,1.9-0.7,2.9-0.9c0.7-0.2,2-0.7,2.2-0.4c1.3,1.6,1,3.2-0.1,4.9
		c-1,1.5-2.1,1.6-3.5,0.8c-0.7-0.3-1.5-0.4-2.2-0.5c-0.1,0.9-0.5,2-0.3,2.8c1.1,3.2,3,6,6,7.8c0.7,0.4,1.6,0.5,2.4,0.8
		c-0.1-0.9-0.2-1.8-0.4-2.6c-0.2-0.8-0.5-1.5-0.7-2.3c-0.4-1.7,0.7-3,2.1-2.9c3.1,0.3,6.4,0,9,2.7c5,5.2,10.9,9.4,17.4,12.7
		c1.5,0.8,2.5,1.7,2.6,3.5c0.1,0.6,0.8,1.2,1.4,2c0.4-0.6,0.6-0.7,0.7-1c1.4-2.8,2.1-2.9,4.7-1c0.4,0.3,0.9,0.4,1.3,0.4
		c4.4-0.6,8.9-1.2,13.2-2.1c1.1-0.2,1.9-1.6,2.9-2.5c-1.2-0.9-2.4-2-3.8-2.7c-0.5-0.2-1.5,0.5-2.2,0.7c-1.5,0.3-3.1,0.8-4.4,0.5
		c-1.9-0.5-3.1-0.7-4.4,1.1c-0.8,1.1-2.7,2.3-3.6,0.5c-1.1-2.5-3-4.1-4.8-6c-1.5-1.5-1-3.3,0.8-3.5c1.9-0.1,2.1-1.1,2.1-2.5
		c0-2.2,1.4-2.8,3.3-2.5c0.7,0.1,1.4,0.3,2.2,0.5c0.1-0.7,0.3-1.2,0.3-1.8c-0.2-2.7,1.3-3.9,3.7-4.2c1.7-0.2,3.4-0.3,5.1-0.3
		c2.5,0,5,0.1,7.5,0.4c1.6,0.2,3.2,0.9,4.8,1.2c0.9,0.2,2,0.4,2.7,0c3-1.5,6-2.1,9.2-1.3c4.4,1,8.4,0.1,12.5-1.4
		c2.3-0.8,5.3-0.4,7.8,0.1c1.2,0.2,2,0.4,3-0.4c2.5-2.1,5.1-2.6,8.1-1.1c1.7,0.9,3.5,0.8,5.4-0.2c3-1.6,4.5-1.2,6.9,1.3
		C306.5-354.4,307-353.7,307.7-352.9z M264.4-390c1.3,0,2.1-0.1,2.9,0c2.6,0.2,4-1.5,4.3-3.5c0.3-2.2,0-4.6-0.5-6.7
		c-0.5-2.1-1.9-2.2-3.3-0.6c-0.9,1.1-1.8,2.3-2.9,3.3c-0.5,0.5-1.6,0.9-2.1,0.7c-0.5-0.2-0.8-1.2-1-2c-0.4-1.3-0.4-3-1.2-4
		c-2.4-3.2-5.6-4.9-9.8-4.2c-3.9,0.7-7.8,1.5-11.6,2.6c-1.5,0.4-3.1,1.4-4,2.6c-1.3,1.9-2.6,3.1-5.1,3c-0.9,0-2.5,0.6-1.4,2
		c1.8,2.4,2.7,5.7,6.1,6.7c0.5,0.2,1.1,0.9,1.1,1.4c0,0.5-0.6,1.2-1.1,1.4c-1.2,0.5-2.6,0.6-3.6,1.3c-2.3,1.7-4.4,2.2-6.7,0.1
		c0,0-0.3,0.2-0.5,0.3c0.2,0.4,0.2,0.9,0.5,1.2c1.2,1.1,0.6,1.8-0.2,2.9c-1.2,1.8-2,3.8-2.9,5.7c3,0.8,5.4,1.7,7.9,2.1
		c4.9,0.9,5.8,0.1,6.6-4.5c0.1-0.5,0.8-1.3,1.2-1.4c1.2-0.1,2.5,0,3.5,0.4c0.7,0.3,1.6,1.3,1.6,2c0.1,2.9,0.4,3.1,3.2,2.8
		c1.9-0.2,3.9-0.6,5.8-0.3c3.1,0.5,6.1,1.6,9.2,2.2c1.4,0.3,3,0.4,4.3-0.1c4.7-1.6,9.5-2.5,14.5-2.6c0.9,0,2-0.6,2.7-1.2
		c1.8-1.4,3.5-3.2,5.4-4.5c1.5-1,1.5-1.8,0.4-3.1c-1.9-2.4-4.4-3.4-7.4-3.5c-3.6-0.1-7.2-0.7-10.8-0.8
		C267.8-388.1,266.1-388.2,264.4-390z M353-375.7c0.2-0.1,0.5-0.2,0.7-0.3c-0.1-1.3,0.2-2.8-0.3-4c-1.2-2.6-2.6-5.3-4.3-7.6
		c-2.5-3.4-5.6-6.3-7.8-9.9c-1.7-2.7-3.9-4.4-6.4-6.1c-1.8-1.2-3.5-2.3-5.2-3.6c-1.9-1.5-3.5-3.2-5.5-4.6c-0.7-0.5-2-0.4-3-0.3
		c-0.3,0-0.7,1-0.6,1.3c1.1,2.5,1.8,5.4,3.5,7.4c2.6,3.2,5.9,5.8,9,8.5c2.5,2.2,5.4,3.9,7.7,6.3c3.4,3.5,6.5,7.3,9.7,10.9
		C351.2-376.8,352.2-376.3,353-375.7z M254.6-318.2c3.1,0.7,5.8,1.9,8.6,1.9c3.9,0.1,8,1,11.9-0.6c0.5-0.2,1.1,0.1,1.7,0.1
		c1.6,0,3.4,0.3,4.9,0c2.4-0.5,4.8-1.4,7.2-2.2c0.9-0.3,1.7-1,2.9-1.6c-2.1-1.7-3.9-2.6-6.3-2.2c-1.7,0.3-3.6,0-5.3,0.4
		c-4.2,0.9-8.3,2-12.5,2.9c-1,0.2-2.1,0.3-3.1,0C261.3-320.4,258-321.3,254.6-318.2z M300-402.8c-0.7-0.5-1.6-1.6-2.8-2.2
		c-4.6-2.6-10.4-4.2-14,0.8c-0.7,1-1.4,2.4-1.2,3.5c0.2,0.7,1.9,1.2,3,1.5c2.8,0.7,5.8,0.9,7.9,3.3c0.3,0.3,1,0.5,1.5,0.5
		C296.6-395.8,300-399.8,300-402.8z M192.8-291.6c-5.1,2.4-6,4.4-4.4,9.2c0.6,1.9,0.9,4,1.6,5.8c1,2.6,2.3,2.8,4.5,0.9
		c0.8-0.7,2.1-1,3.2-1c1.5,0,3.1,0.5,3.7-1.4c0.6-1.9-0.8-2.6-2.2-3.5c-1.5-0.9-3.1-2.1-4-3.6C194.1-287,193.6-289.3,192.8-291.6z
		 M160.1-371.4c-1.8,6.2,0.5,16.5,4.1,18.7C166.3-356.8,163.9-368,160.1-371.4z M360.6-474.3c0.2-5.9-19.5-17.2-27-13.8
		c5.1,1.5,10.3,2.4,14.7,4.6C352.7-481.3,356.4-477.5,360.6-474.3z M212.2-370.3c2.5-1.2,4.8-2,6.8-3.3c1.4-0.9,1.2-2.1-0.6-2.8
		c-0.7-0.3-1.6-0.7-2.1-1.3c-1.5-1.7-2.9-1.2-4.2,0c-0.9,0.7-1.7,1.5-2.3,2.5c-0.4,0.8-0.7,2-0.3,2.7
		C210.1-371.6,211.3-371,212.2-370.3z M97.2-442.2c-0.6,1.1-1.1,1.7-1.2,2.3c-0.4,3.2,2.4,7.2,5.6,8c0.6,0.1,1.4-0.3,1.9-0.8
		c0.3-0.4,0.5-1.3,0.3-1.7c-0.7-1.5-1.4-3-2.4-4.2C100.3-439.8,98.9-440.8,97.2-442.2z M250-318.4c-1.8-1.3-2.9-2.2-4.1-3
		c-0.6-0.4-1.3-0.6-1.9-0.7c-1.2-0.2-2.5-0.3-3.7-0.2c-0.9,0-1.8,0.3-2.7,0.5c0.3,1,0.3,2.4,1,2.8c3.1,2.1,6.6,2.3,10.2,1.3
		C249-317.8,249.2-318,250-318.4z M225.9-325c0-0.2-0.1-0.3-0.1-0.5c-0.5,0.3-1.4,0.5-1.5,0.9c-0.1,0.4,0.4,1.1,0.7,1.6
		c0.3,0.3,0.8,0.6,1.2,0.7c2.5,0.7,4.9,1.5,7.4,2c0.5,0.1,1.7-0.5,1.7-0.9c0.3-1.4-1.9-3.8-3.4-3.9C229.9-325,227.9-325,225.9-325z
		 M93.4-155.9c1.4,1.8,2.4,3.1,3.3,4.4c1.6-1.4,4.2-2.7,4.4-4.3c0.3-2.2-2.8-1.7-4.4-2.1C96-158,94.9-156.8,93.4-155.9z M95.1-162
		c1.1,1.3,2.4,0.6,3.6-0.3c2.2-1.7,3-3.9,2.1-5.2c-0.7-1-4.6-1.3-6.6-0.4c0.8,0.9,1.9,1.6,2.1,2.5C96.4-164.4,95.6-163.3,95.1-162z
		 M254.1-332.1c-1.7-1.9-6.1-1.9-8.3,0.1C247.8-329.6,251.7-329.6,254.1-332.1z M179.5-558.2c1-4.1,0-9-2.2-10.2
		C177.5-564.9,176-561.2,179.5-558.2z M263.4-297.8c1.4-1.1,2.5-2,3.7-2.9c-0.9-0.7-2-2.1-2.6-1.9c-1.3,0.5-2.4,1.7-3.6,2.6
		C261.6-299.4,262.3-298.8,263.4-297.8z M302.5-337.6c2.1,0.4,3.7,0.7,5.3,0.8c0.5,0,1.4-0.7,1.6-1.2c0.1-0.5-0.3-1.7-0.7-1.8
		c-1.1-0.3-2.4-0.4-3.6-0.1C304.3-339.8,303.7-338.8,302.5-337.6z M291.8-383.8c0.2,0.4,0.4,0.8,0.6,1.2c1.2-0.5,2.6-0.7,3.6-1.5
		c0.5-0.4,0.4-1.7,0.5-2.6c-0.3-0.1-0.6-0.2-0.8-0.4C294.3-385.9,293-384.9,291.8-383.8z M98.5-142.6c-0.5,1.3-0.9,2-1,2.6
		c-0.1,0.9,0.1,1.8,0.2,2.7c0.4,0,1.1,0.1,1.3-0.2c0.5-0.9,1.1-1.9,1.2-2.9C100.2-140.9,99.3-141.5,98.5-142.6z M412.8-408.4
		c-0.2,0.1-0.3,0.1-0.5,0.2c0,1.3-0.2,2.6,0.1,3.8c0.1,0.6,1.1,1,1.7,1.5c0.2-0.7,0.8-1.5,0.7-2
		C414.2-406.1,413.4-407.3,412.8-408.4z M225.3-405.9c-0.3,0-0.6,0-0.8,0.1c-1.1,1.4-0.9,3-0.1,4.6c0.2,0.4,1,0.7,1.4,0.6
		c0.4-0.2,0.8-0.9,0.7-1.3C226.2-403.3,225.7-404.6,225.3-405.9z M243.8-213.7c-1.5-0.7-2.3-1.4-3-1.3c-0.6,0.1-1.1,1-1.7,1.6
		c0.6,0.6,1.3,1.6,1.9,1.6C241.7-211.8,242.4-212.7,243.8-213.7z M274.1-298.9c-1.3-0.7-2-1.5-2.5-1.3c-0.9,0.3-1.6,1-2.4,1.6
		c0.6,0.5,1.3,1.5,1.8,1.4C271.9-297.3,272.7-298.1,274.1-298.9z M90.1-81.8c0.8-0.7,1.5-1.2,2.2-1.8c-0.6-0.6-1.4-1.7-1.7-1.6
		c-0.9,0.4-1.7,1.3-2.5,2C88.7-82.8,89.3-82.4,90.1-81.8z M301.9-338.5c-1.4-0.9-2.2-1.5-3.2-1.9c-0.1-0.1-1.1,1.3-1,1.4
		c0.6,0.7,1.4,1.3,2.2,1.7C300.3-337.1,300.9-337.8,301.9-338.5z M514.4-199.1c0.1-0.3,0.2-0.7,0.2-1c-1-0.7-2.1-1.5-3.1-2.2
		c-0.2,0.2-0.5,0.3-0.7,0.5c0.3,0.9,0.3,2.1,0.9,2.6C512.3-198.7,513.5-199.1,514.4-199.1z M81.6-87.9c0.2,0.4,0.4,0.8,0.6,1.3
		c0.9-0.3,1.9-0.7,2.8-1c-0.3-0.5-0.5-1-0.8-1.6C83.3-88.8,82.4-88.4,81.6-87.9z M262.3-330.8c-1.7,0-2.8,0-4.6,0
		C259.5-328.8,260.7-328.6,262.3-330.8z M269.4-205.8c-0.9-0.7-1.5-1.2-2.1-1.5c-0.2-0.1-1.1,0.8-1,1c0.3,0.7,0.8,1.3,1.4,1.7
		C267.8-204.4,268.5-205.1,269.4-205.8z M493.1-134.6c0.2-0.4,0.4-0.9,0.6-1.3c-0.8-0.4-1.6-0.8-2.4-1.2c-0.2,0.5-0.6,1.3-0.5,1.4
		C491.6-135.3,492.4-135,493.1-134.6z M495.4-126.6c0-0.2,0-0.3,0-0.5c-1.7-0.1-3.3-0.3-5-0.4c0,0.3,0,0.6-0.1,0.9
		C492.1-126.6,493.8-126.6,495.4-126.6z M212.8-217.8c1.1-0.9,1.6-1.4,2.1-1.8c-0.4-0.3-0.9-1-1.1-0.9c-0.6,0.3-1.2,0.8-1.6,1.4
		C212.2-219,212.6-218.4,212.8-217.8z M130.2-347.4c-1.1,1.4-1.8,2.3-2.8,3.5C130.2-344.2,130.3-344.3,130.2-347.4z M225.9-215.9
		c-0.9-0.5-1.4-1.1-1.9-1.1c-0.4,0-0.8,0.6-1.2,0.9c0.5,0.4,0.9,0.9,1.4,1C224.5-215,225-215.4,225.9-215.9z M268.6-332.4
		c1.5,2.3,1.8,2.3,3.1,0C270.7-332.4,269.9-332.4,268.6-332.4z"/>
	<path class="st2" d="M403.8-70.5c1.9-3.3,3.9-6.5,5.8-9.8c2.6-4.5,5.2-9,7.5-13.6c3.1-6.1,6.1-12.2,8.9-18.4
		c1.7-3.7,3-7.6,4.4-11.4c1.8-4.6,3.8-9.2,5.3-13.9c2.6-8,4.9-16.2,7.3-24.3c1-3.3,1.8-6.7,2.5-10.2c1.2-6.5,1.8-13.2,3.5-19.7
		c1.7-6.4,1.2-12.8,0.7-19.2c-0.4-6.1-2.2-11.5-8.5-14.3c-0.4-0.2-0.9-0.9-0.8-1.2c0.2-0.6,0.7-1.4,1.3-1.6c2.5-0.9,5.1-1.1,7.7,0.5
		c-2.2,1.9-1.3,3.3,0.2,5.1c1.1,1.3,1.4,3.2,2,4.9c0.5,1.4,0.9,2.8,1.5,4.1c0.4,0.8,1.2,1.5,1.9,2.2c0.6-0.9,1.5-1.6,1.8-2.6
		c0.3-0.9,0.3-2,0.1-2.9c-0.5-2.3,0.6-3.7,2.6-5c0.4,0.7,0.7,1.2,0.9,1.7c1,2.2,2.1,4.5,3.1,6.7c0.3,0.6,0.2,1.3,0.4,1.9
		c0.3,0.7,0.9,1.4,1.3,2.1c0.4-0.8,1-1.5,1.1-2.3c0.1-0.8-0.4-1.8-0.3-2.6c0.2-0.8,0.8-1.6,1.3-2.4c0.7,0.4,1.7,0.7,2.1,1.3
		c0.5,0.8,0.7,2,0.9,3c0.3,1.1,0.5,2.2,1.2,3.3c0.5-1.3,1.1-2.6,1.6-4c0.2,0,0.5,0,0.7,0c0.6,2.8,1.5,5.6,1.6,8.5
		c0.3,6.8,1.1,13.6-1,20.3c-1,3.3-1,7-1.5,10.5c-0.4,2.4-0.9,4.8-1.5,7.1c-1.2,5.4-2.4,10.9-3.8,16.3c-0.7,2.9-1.8,5.7-2.7,8.5
		c-0.3,0.8-0.4,1.7-0.7,2.6c-1.2,3.9-2.3,7.9-3.5,11.8c-0.5,1.6-1.4,3.1-1.6,4.7c-0.5,3.7-1.8,6.9-3.6,10.2c-2,3.9-4,8-4.5,12.6
		c-0.1,1-1.4,1.9-2.2,2.9c-0.7,0.8-1.9,1.6-2,2.5c-0.6,3.6-1.8,6.6-4.2,9.5c-2.2,2.7-3.3,6.3-5,9.5c-0.9,1.7-2.1,3.2-3.2,4.7
		C424.3-70.5,414-70.5,403.8-70.5z"/>
	<path class="st2" d="M497.7-70.5c0-1.8-0.1-3.6,0.1-5.3c0.3-3.7-0.7-6.7-4-9.4c1.2-0.4,1.9-0.8,2.7-1c2.6-0.8,3.4-2.6,1.7-4.8
		c-1.3-1.7-2.3-3-0.6-5.2c0.6-0.8,0.1-2.6,0.1-3.9c-0.3-0.1-0.7-0.1-1-0.2c-0.4,1-0.9,2-1.1,3.1c-0.3,1.8-1.2,2.3-2.9,1.8
		c-1.7-0.6-3.4-1.1-5.1-2c0.6-0.1,1.3-0.3,1.9-0.3c1.8,0,3.1-0.7,3.8-2.5c0.3-0.7,1.1-1.6,1.8-1.7c1.9-0.4,2.3-1.7,2.4-3.2
		c0.2-3.9,0.5-7.8,0.6-11.6c0.1-2.3-0.7-2.8-3-2.2c-3.9,1.2-6.7,0.7-9.3-1.8c3.2-0.4,6.4-0.8,9.6-1c3-0.2,3.6-1.2,2.9-4.1
		c-0.2-0.9,0.2-2.1,0.5-3.1c0.4-1.4,1.2-2.7,1.3-4c0.2-3.4,0.1-6.8,0.1-10.2c0-0.6,0.3-1.3,0.5-1.9c0.4-1.6,1.4-3.2,1.3-4.7
		c-0.5-4.6,1-8.8,1.7-13.1c0.3-1.6-0.1-3.2,0-4.8c0.1-1.1,0.4-2.1,0.8-3.2c0.5-1.5,1.6-2.9,1.8-4.4c0.7-5.2,1.1-10.5,1.6-15.8
		c0.1-1.2,0.3-2.4,0.8-3.6c1.1-2.7,3-3.2,5.4-1.6c2.1,1.5,3.2,1.1,3.9-1.3c0.3-0.9,0.3-1.9,0.7-2.9c0.3-0.7,0.8-1.4,1.2-2.1
		c0.4,0.7,0.9,1.5,1.3,2.3c0.3,0.7,0.2,1.4,0.4,2.2c0.6,2.7,2.4,3.5,4.9,2.4c2.5-1.1,3.2-0.7,3.4,2.1c0.1,0.9,0.1,1.8,0.2,2.9
		c3.4-1.1,3.4,0.9,3.2,3.1c-1,9.6-2.1,19.3-3,28.9c-0.6,6.2-0.9,12.3-1.3,18.5c-0.9,14.5-2.2,29.1-2.6,43.6
		c-0.3,8.7,0.7,17.4,1.2,26.1C517.6-70.5,507.6-70.5,497.7-70.5z"/>
	<path class="st2" d="M106.3-70.5c-0.7-13.8-1.7-27.6-2.2-41.5c-0.2-6.8,0.2-13.6,0.4-20.4c0.2-8,0.5-16.1,0.8-24.1
		c0.1-2,0.4-4,0.5-6c0.3-3.6,0.5-7.1,0.7-10.7c0-0.2,0.1-0.4,0-0.5c-1.7-2.2-0.3-3.8,1-5.5c0.4-0.5,0.1-1.7-0.3-2.4
		c-0.6-1.3-0.5-2.1,0.5-3.3c1.8-2.1,3.2-4.6,4.8-6.9c0.6-0.8,1.1-2.1,1.9-2.3c4.9-1.5,8.7-4.7,12.9-7.2c6.5-4,12.8-8.4,20.3-10.5
		c1.3-0.4,2.6-0.4,4-0.6c0.1,0.2,0.1,0.4,0.2,0.6c-1.9,1.1-3.9,2.3-5.8,3.4c-9.6,5.3-15,13.5-16.7,24.2c-1.8,11.6-0.3,23.1,0.2,34.6
		c0.6,11.5,1.4,23.1,1.6,34.6c0.1,5.2-1.3,10.5-1.9,15.7c-1,9.3-1.3,18.7,1.5,27.8c0.1,0.3,0,0.6,0.1,1
		C122.6-70.5,114.4-70.5,106.3-70.5z"/>
	<path class="st2" d="M53-70.5c1.7-9.7,3.7-19.4,4.9-29.1c1.7-13.7,2.5-27.4,4.1-41.1c0.9-7.4,2.6-14.7,4.4-22
		c0.9-3.6,3.5-6.4,6.1-9.3c4-4.4,9.4-6.6,14.4-10.2c0.2,1.2,0.4,1.8,0.3,2.5c-0.2,9.1-0.3,18.2-0.7,27.3c-0.2,4.1-1,8.2-1.5,12.3
		c-0.2,2-0.4,4.1-0.6,6.1c-0.6,4.2-1.4,8.4-1.9,12.5c-0.3,2.6-0.2,5.2-0.6,7.8c-0.6,3.4-1.6,6.7-2.4,10c-0.2,0.6-0.7,1.2-0.6,1.8
		c0.8,7-2.8,13.3-2.9,20.1c0,2.4-1.7,4.7-2.4,7.1c-0.4,1.4-0.6,2.8-0.8,4.2C66-70.5,59.5-70.5,53-70.5z"/>
	<path class="st2" d="M306.4-572.9c0-1,0-1.5,0-1.9c0.1-1.5,0.1-2.9-2-2.9c-1.8,0-3.3,0.8-3.6,2.7c-0.4,1.9,0.9,2.6,2.6,2.7
		c0.6,0.1,1.6,0.6,1.7,1c0.1,0.6-0.4,1.3-0.9,1.8c-2.5,2.6-7,2.6-9.8,0.7c-5-3.3-9.4-7.5-12.3-13c-2.3-4.3-4.8-8.5-7.3-12.7
		c-1.5-2.5-2.1-2.1-4.5-0.9c-2.9,1.5-3.6,4.7-6,6.5c-1.4,1.1-2.2,1.4-3.3-0.4c-0.4-0.7-1.4-1.1-2.2-1.6c-0.3,0.9-0.8,1.7-0.9,2.6
		c-0.5,2.4-0.8,4.8-1.3,7.1c-0.6,2.6-1.7,5.2,1.2,7.2c0.6,0.4,0.8,1.7,1,2.7c1.6,6.8,6.3,10.5,12.4,13c0.6,0.3,1.1,1,1.6,1.5
		c-1,0.5-2.3,1.7-2.9,1.4c-2.8-1.3-5.5-2.8-7.9-4.6c-1.6-1.2-2.7-3-4.1-4.5c-2.4-2.7-4.4-2.7-6.6,0.1c-1.7,2.1-3.7,4.1-5.3,6.2
		c-1.3,1.7-2.2,3.7-3.4,5.5c-0.5,0.8-1.3,1.3-2,1.9c-0.5-0.6-1.3-1.2-1.5-2c-0.3-1-0.6-2.1,1-2.8c3.1-1.2,3.9-4,4-7
		c0.1-1.9-2.2-3.7-3.9-2.9c-3.4,1.6-5.8-0.5-8.4-1.9c-6.3-3.5-10.2-9.5-14.7-14.8c-1.4-1.6-2.4-3.7-3.3-5.7c-2-4.5-4.7-8.8-3.8-14.1
		c0-0.1,0-0.2,0-0.2c-0.4-1.2-0.9-3.4-1.3-3.4c-1.9,0-1.2,1.8-1.3,3c-0.3,2.1-1.9,2.8-4.3,1.7c0.3-0.8,0.6-1.6,0.9-2.6
		c-0.6-0.2-1.2-0.6-1.6-0.5c-3.4,1.1-6.9,2.3-10.3,3.4c-0.2,0.1-0.4,0.4-0.6,0.4c-3.7-0.3-5.2,2.5-7.1,4.8c-0.3,0.3-0.6,0.6-0.9,0.8
		c-2.3,1.8-2.7,1.7-3.3-1.2c-0.3-1.6-0.9-2.1-2.3-1.1c-3.7,2.5-7.2,5.2-9.6,9.2c-0.3,0.5-1.2,0.6-1.9,0.8c-1.2,0.3-2.6,0.2-3.5,0.9
		c-2.4,1.7-4.6,3.6-6.8,5.5c-0.8,0.7-1.5,1.7-2.1,2.6c-4.5,7.5-6.6,15.8-7.6,24.5c-0.6,5.1-1.9,10.1-2.1,15.1
		c-0.2,3.8,0.8,7.7,1.2,11.6c0.1,0.8,0.6,1.6,0.4,2.3c-1.4,5.3-2.4,10.6-4.4,15.7c-2.5,6.4-5.9,12.5-8.7,18.8
		c-0.7,1.5-1.2,3.3-1.3,4.9c-0.4,5.8-0.7,11.7-0.8,17.5c-0.2,10.5,0,21-0.3,31.5c-0.3,11.8-1,23.6-1.5,35.4c0,0.8,0.1,1.7-0.1,2.4
		c-0.2,0.8-0.8,1.4-1.2,2.1c-0.8-0.5-1.9-0.8-2.3-1.5c-0.8-1.4-1-3.1-1.7-4.5c-1-2.1-1.9-2.2-3.4-0.3c-2.7,3.4-3.7,7.4-4.1,11.7
		c-0.4,4.8-1.3,9.6-2,14.5c-3.4-1-6-3.3-7.1-7.1c-0.8-2.6,0.3-3.8,2.4-5.7c1.4-1.2,1.9-3.4,2.7-5.2c0.6-1.4,1.1-2.8,1.7-4.3
		c0.4-1.1,1.2-2.3,1.1-3.4c-0.2-3.5,0.7-6.6,2.3-9.6c1.1-2.1,0.6-4-0.9-5.6c-1.9-2.1-3-4.4-3-7.2c0-5.1-2.4-9.4-5-13.6
		c-2.2-3.5-4.7-6.8-6.8-10.4c-1.3-2.2-2.1-4.8-2.6-7.3c-1.5-8.2-2.3-16.7-4.2-24.8c-2.2-9.2-2-18.4-2.2-27.7
		c-0.1-3.4-1.6-6.8-1.8-10.3c-0.3-3.8-0.3-7.7,0.1-11.4c0.8-6.1,2.1-12,3.1-18.1c0.8-4.7,1.2-9.4,2.1-14c0.8-4.2,1.8-8.4,2.9-12.6
		c0.2-1,0.7-2,1.4-2.8c3.6-4.3,7.3-8.5,10.8-12.9c1.7-2.1,2.8-4.5,4.3-6.8c1.7-2.7,3.6-5.4,5.3-8.2c0.5-0.9,1.1-1.9,1.2-2.9
		c0.5-6.3,0.8-12.7,1.2-19c0.1-1.5,0.5-3,0.8-4.6c0.2,0,0.5,0,0.7,0c0.3,0.4,0.6,0.8,0.8,1.3c1.3,3.4,3.2,4.1,6.3,2
		c1.1-0.8,2.2-1.7,3.5-2c1.1-0.3,2.5,0,3.6,0.4c2.2,0.9,3.5,0.6,4.7-1.4c0.2-0.4,0.3-0.9,0.6-1c2.9-0.8,3.5-3.6,5-5.6
		c0.6-0.8,1.6-1.4,2.5-1.8c3.7-1.7,7.3-3.4,10-6.7c1.5-1.8,4-2.8,5.7-4.4c2.6-2.5,4.8-5.3,7.2-8c1.7-2,3.3-3.8,6.4-2.7
		c1.3,0.5,2.5,0.1,3-1.6c0.4-1.4,1.2-2.2,2.6-0.8c1,1,2.8,2.8,3.2,2.6c1.8-1.2,4-2.7,4.7-4.6c0.8-2.3,1.9-3.4,4.1-4.1
		c1.4-0.5,2.5-1.9,3.9-2.8c2.1-1.2,4.1-2.9,6.4-3.3c6.3-1.2,10.4-5.4,14.6-9.7c2.1-2.1,4.3-4.2,6.7-6c4.2-3.2,9.1-2.3,13.9-2.1
		c4,0.2,7.9,0.3,11.9,0.6c1.1,0.1,2.2,0.7,3.3,1.2c0.6,0.3,1.2,1.1,1.8,1.2c5.3,0.3,10.5,2.1,15.9,0.6c2.1-0.6,4.1-1.4,6.2-1.8
		c1.5-0.3,2.7,0.5,3.1,2.1c0.4,1.7,1.4,2.5,3.2,2.2c0.2,0,0.5-0.1,0.7,0.1c3.2,2.4,7.4,3.3,9.6,7.1c1.6,2.8,5.3,3.3,7.9,1.5
		c1.2-0.8,2.9-0.8,4.3-1.1c2-0.4,2.4,1.1,3.1,2.6c0.8,1.6,2.4,2.8,3.6,4.1c0.5,0.5,1.2,1,1.3,1.6c1,3.3,2.5,4.6,5.9,4.9
		c3.7,0.3,6.5,2,9.2,4.7c3.5,3.5,7.2,7.4,11.6,9c5.6,2,10,5.5,15.1,8.2c2.5,1.4,5.2,2.5,7.8,3.8c1,0.6,2.1,1.3,2.8,2.3
		c0.5,0.8,0.8,2.2,0.4,2.9c-1.1,1.8-0.6,2.6,1.1,3.5c0.7,0.3,1.2,1.2,1.4,2c0.4,1.2,0,3,0.7,3.6c1.5,1.2,3.4,2.1,5.2,2.4
		c4.7,0.9,9.6,1.1,14.3,2.2c4.3,1,8.1,3.1,11.5,6.1c4.3,4,6.9,8.7,7.7,14.5c0.1,0.9,0.8,1.7,1.4,2.5c2.4,3.6,4.9,7,7.1,10.7
		c2.4,3.9,1.9,8.2,0.7,12.3c-0.7,2.7-1.1,5.2,0.4,7.8c0.4,0.7,0.3,1.6,0.5,2.4c0.4,1.6,0.9,3.2,1.2,4.8c0.2,1.4,0.3,2.9,0.1,4.3
		c-0.2,1.4-1,2.8-1.3,4.2c-0.1,0.6,0.4,1.3,0.6,2c0.5-0.5,1.3-1,1.5-1.6c0.2-0.6-0.2-1.4-0.1-2.1c0.1-0.7,0.4-1.3,0.6-2
		c0.6,0.3,1.4,0.5,1.7,1c2,2.6,2.1,5.7,1.9,8.8c-0.2,2.6,0.2,5.2,0,7.8c-0.2,2.8-0.3,5.7-1.2,8.4c-2.1,6.4-3,13-3.1,19.7
		c-0.1,3.2-0.4,6.2-1.6,9.2c-1.4,3.4-1.6,7.3-2.3,10.9c-0.3,1.7-0.2,3.5-2.5,4c-0.3,0.1-0.7,0.9-0.7,1.4c0.4,3.9,1.1,7.9,1.4,11.8
		c0.2,3.8-0.2,7.5-2.2,11c-1.7,3-3.4,6.1-4.5,9.4c-1,3-1.3,6.2-2,9.3c-0.9,3.7-1.9,7.4-3.2,11c-2.1,6.1-3.5,12.1,0,18.1
		c0.2,0.4,0.1,0.9,0.2,2c-1.5-1.9-2.9-3.4-4.6-1.5c-1.1,1.3-1.6,3-2.4,4.7c-0.1-0.8-0.3-1.7-0.3-2.6c-0.1-2.9-0.3-5.9,0-8.8
		c0.5-6.1-1.7-11.7-3.2-17.4c-0.1-0.4-0.3-0.8-0.3-1.2c-0.9-6.2-1.7-12.4-2.6-18.6c-1.3-9.3-2.3-18.7-3.9-28
		c-0.9-5.5-2.3-11.1-4.2-16.3c-2.2-6-5.4-11.7-8.1-17.5c-2.4-5.1-3.7-10.5-3.8-16.2c-0.1-1.7-0.9-3.3-1.2-5c-0.2-1.3-0.2-2.7-0.2-4
		c0-0.9,0.6-2,0.3-2.8c-1.6-5.7-3.8-11.1-6.8-16.3c-3.5-6-6.4-12.4-9.9-18.5c-2.6-4.5-6-8-11.9-8.7c-4-0.5-7.9-2.9-11.8-4.4
		c-2-0.8-4-1.8-6.1-2.4c-0.7-0.2-1.7,0.3-2.4,0.8c-0.9,0.6-1.5,1.5-2.4,2.1c-1.3,1-2.4,0.9-3.2-0.6c-0.3-0.6-0.6-1.2-1.1-1.6
		c-0.6-0.4-1.7-1-2-0.8c-0.6,0.4-1.2,1.6-1,2.1c1,2.4-0.1,4.2-1.4,6.1c-1.5,2.3-2.2,4.7-2.2,7.6c-0.1,3.3-0.7,6.9-4.1,8.8
		C307.9-573.4,307.3-573.3,306.4-572.9z M248.7-570.9c0-0.6,0-0.8,0-0.9c-0.1-2-6-6.8-7.9-6.2c-0.9,0.3-1.6,1.3-2.1,2.1
		c-0.2,0.3,0.6,1.3,1.1,1.8c1.6,1.7,3.3,3.3,4.9,5c0.6,0.7,1.1,1.5,1.7,2.2c0.6-0.8,1.3-1.5,1.8-2.3
		C248.6-569.8,248.6-570.6,248.7-570.9z M295.9-592.6c-0.3-0.2-0.8-0.6-1.4-1c-1.1-0.8-2.2-1.7-3.3-2.5c-0.4-0.3-1.1-0.8-1.4-0.7
		c-0.5,0.2-1.3,1-1.2,1.3c0.7,2.4,1.5,4.8,2.4,7.2c0.1,0.2,0.6,0.3,0.9,0.3C293.2-588,296-590.9,295.9-592.6z M229.9-581.1
		c1.1,1.5,2,2.9,3.1,4.1c0.4,0.4,1.4,0.5,2,0.3c0.3-0.1,0.6-1,0.6-1.6C235.5-581.6,233.7-582.6,229.9-581.1z M408.6-606.6
		c0.7-2.5-0.1-3.7-3-4.5c0.8,1,1.4,1.6,1.8,2.3C407.9-608.1,408.2-607.3,408.6-606.6z"/>
	<path class="st2" d="M166.1-439.4c2.3-0.7,4.6-1.3,6.8-2.2c0.7-0.3,1.5-1.1,1.6-1.8c0.1-0.5-0.7-1.5-1.3-1.7
		c-1.4-0.4-2.9-0.5-4.3-0.8c-1.1-0.2-2.3-0.5-3.4-0.8c0-0.3,0-0.7,0-1c1.9-0.1,3.9-0.5,5.7-0.4c2.4,0.2,4.8,0.8,7.1,1.5
		c3.4,1,6.3-0.1,9-2c1.3-0.9,2.3-1,3.8-0.4c1.1,0.4,2.4,0.1,3.7,0.1c0-0.6,0.1-1.6-0.1-1.7c-1.2-0.3-2.7-1-3.8-0.6
		c-1.9,0.7-3.2,0.8-4.4-1c-0.3-0.4-0.9-0.9-1.4-0.9c-2.9-0.1-5.7-0.2-8.1-1.9c-0.1-0.1-0.4-0.1-0.5,0c-2.6,3.1-6.9-0.2-9.7,2.8
		c-0.9,1-3.1,1.1-4.6,0.9c-3.7-0.4-4.9-2.3-5-7.2c3.1-0.7,3.7-2,2.1-5c-1.1-2.1-0.7-2.9,1.6-2.9c1.9,0,2.8-0.8,4-2.4
		c1.4-1.9,3.8-3.1,5.9-4.5c1.4-0.9,3-1.6,4.6-2.2c4.1-1.6,8.2-3,12.3-4.6c1.4-0.5,2.5-0.6,3.3,1.3c-2.2,0.8-4.4,1.7-6.6,2.5
		c-2.9,1-6,1.6-8.6,3.1c-2.1,1.2-3.6,3.4-5.3,5.3c-0.8,1-1.3,2.3-1.9,3.4c1.2-0.3,2.5-0.5,3.7-1c6.5-2.6,12.8-5.7,19.4-7.7
		c4.3-1.3,9-1,13.6-1.4c0.6-0.1,1.4,0.1,1.9-0.1c0.8-0.4,1.5-1.1,2.3-1.7c-0.5-0.6-1-1.2-1.6-1.7c-1.9-1.7-4.2-1.4-6.5-1.5
		c-1.6,0-3.2-0.3-4.8-0.5c0-0.3,0-0.7,0-1c2.1-0.7,4.2-1.4,6.4-2.1c1-0.3,2.1-0.3,3.1-0.7c0.8-0.3,1.4-0.9,2.1-1.4
		c-0.6-0.7-1.1-1.9-1.8-2c-3.5-0.6-3.8-3.9-5.2-6.1c-0.8-1.2-1.3-1.9-2.6-2.4c-1.4-0.5-2.6-1.6-4.1-2c-1.6-0.4-3.4-0.7-5-0.4
		c-4,0.8-7.9,1.9-11.8,2.9c-0.4,0.1-0.9,0-1.2,0.2c-5,2.6-10.1,5-15,7.8c-1.3,0.8-2,2.6-2.9,4c-0.3,0.4-0.3,0.9-0.6,1.3
		c-1.9,2.2-3.7,4.4-5.7,6.6c-0.5,0.5-1.4,0.9-2,0.8c-0.4-0.1-0.9-1.1-0.9-1.7c0.1-1.4,0.5-2.7,0.8-4c0.4-2.3,0.8-4.5,1.2-6.8
		c0.1-0.5,0-1.1,0.2-1.4c1.8-2.8,3.4-5.7,5.5-8.2c3.3-3.9,7.2-7.3,10.5-11.2c4.5-5.3,10-7,16.8-6.9c5.3,0.1,10.7-1.8,16-2.3
		c4.2-0.4,8.4-0.3,12.7-0.3c5.5,0,10.8,0.6,15.8,3.3c4.6,2.5,9.1,5.2,12.2,9.4c2.6,3.4,2.4,7.7,0.3,11.3c-2,3.5-1.9,6.1,0.9,8.9
		c1.6,1.7,2.8,3.8,4,5.8c0.4,0.8,0.6,2.4,0.1,2.8c-1.9,1.8-2.3,4-2.6,6.4c-0.2,1.7-0.9,3-2.7,3.4c-1.8,0.4-2.6-0.8-3.4-2.1
		c-0.4-0.6-1.2-1.2-1.8-1.4c-1.1-0.2-1.8,0.2-1.4,1.7c0.6,2.3,1,4.7,1.3,7.1c0.1,0.6-0.2,1.5-0.7,2c-3.1,3-5.9,6.3-9.5,8.7
		c-4.3,2.9-9.2,5.3-13.9,7.5c-9.9,4.6-20.6,4-31.2,4.1c-0.5,0-1-0.1-1.5-0.2c-3.2-0.7-6.3-1.5-9.6-0.3c-1,0.3-2.2,0.1-3.3,0.1
		C166.2-438.8,166.1-439.1,166.1-439.4z M221.6-458.4c4,1.4,7.5,0.3,7.9-2.5C226.9-460.1,224.6-459.4,221.6-458.4z M215-463.7
		c-1-0.7-1.8-1.5-2.1-1.4c-0.7,0.4-1.4,1.1-1.8,1.9c-0.1,0.3,1,1.5,1,1.4C213-462.2,213.8-462.8,215-463.7z M195.3-455.1
		c0,0.3,0,0.5,0,0.8c1.4,1,2.7,1.1,4-0.8C198-455.1,196.6-455.1,195.3-455.1z"/>
	<path class="st2" d="M236.1-250.6c2.6-0.7,4.7-1.2,6.7-1.8c2.5-0.8,4.4-0.5,6.8,1c2.7,1.6,6.1,2.3,9.2,2.8c5.6,0.8,6.9,1.7,8.6,7.3
		c0.4,1.1,1.4,2.1,2.1,3.1c0.3-0.1,0.7-0.3,1-0.4c0-1.1,0.2-2.1,0-3.2c-0.5-2.8-1.2-5.6-1.8-8.3c-0.1-0.2,0-0.6-0.1-0.7
		c-2.7-2.9-1.2-6.4-1.3-9.6c-0.1-2.1,1.5-3.6,3.5-4.2c2.3-0.7,5.4,0.4,6,2.1c0.2,0.6-0.2,1.7-0.6,2.3c-1.7,2.4-1.7,5.2,0.5,6.9
		c0.8,0.7,2.3,0.7,3.5,0.7c1,0.1,2.2-0.5,3.1-0.1c3,1.2,5.7,0.2,8.5-0.8c1.2-0.4,2.5-0.4,3.8-0.4c1.2,0,2.4,0.2,3.6,0.1
		c3.1-0.3,5.6,1.5,5.9,4.6c0.1,0.7,0,1.5,0,2.2c0,2,0.8,2.9,2.9,2.2c0.5-0.2,1.2-0.5,1.6-0.3c1.4,0.5,2.9,0.9,3.9,1.8
		c0.3,0.3-0.7,2.3-1.4,3.3c-0.5,0.8-1.4,1.4-2.3,1.8c-3,1.4-6.1,2.6-9.1,3.9c-0.3,0.1-0.6,0.3-0.8,0.5c-1.6,2-3.1,3.9-4.6,5.9
		c0,0.1-0.1,0.2-0.1,0.2c-3.2,1.4-3.1,5.2-5.2,7.2c-1.9,1.7-4.5,2.8-6.8,3.9c-3.5,1.7-4.6,3.8-3.6,7.4c0.4,1.6-0.9,3.9-3,4.1
		c-1,0.1-2.4-0.9-3.2-1.8c-1-1.1-1.3-3.4-2.3-3.6c-2-0.5-4.2-0.1-6.4,0.1c-0.6,0.1-1.3,0.7-1.6,1.3c-1.4,2.8-3.9,3.6-6.2,1.5
		c-1.5-1.4-3.1-1.9-5-2c-1-0.1-2.7-1-2.8-1.7c-0.1-1.1,0.7-2.5,1.3-3.6c0.3-0.5,1.3-0.6,1.8-1.1c0.6-0.6,0.9-1.5,1.4-2.2
		c-1.1-0.4-2.6-1.4-3.1-1c-2.3,1.7-3.7,1.2-5.1-1.1c-0.3-0.5-2-0.1-3-0.1c-1.2,0.1-2.6,0.7-3.7,0.3c-1.6-0.6-2.8-0.4-3.9,0.8
		c-1.3,1.4-2.5,1-4.1,0.2c-2.2-1.1-4.7-1.6-7.2-2.1c-0.5-0.1-1.2,0.9-1.9,1.2c-0.9,0.4-1.9,0.9-2.8,0.9c-0.3,0-0.8-1.3-1-2.1
		c-0.2-1.5-0.9-2.4-2.4-2c-2.3,0.7-3.5-0.5-4.7-2.2c-1.2-1.8-2.6-3.2-5.1-1.9c-0.4,0.2-1.4-0.1-1.7-0.4c-1.6-2-3-4-4.4-6
		c-0.4-0.5-0.6-1.2-0.6-1.8c0.2-3.8-2.4-6.2-4.2-9.1c-0.4-0.6-0.9-1.3-1.5-1.5c-2-0.9-2.9-2.3-2.4-4.5c0.1-0.4,0-0.9-0.1-1.2
		c-2.5-4.7-4.9-9.3-9.7-12.4c-2.8-1.7-5.6-3.8-7.3-7.2c-1.4-2.9-3.8-5.3-5.8-7.8c-1.6-2-1.6-3.4,0.5-4.9c1.8-1.2,3.7-2.3,5.7-3.3
		c0.6-0.3,1.6-0.5,2.1-0.2c1.6,0.9,3,1.9,5,1c0.2-0.1,0.9,0.3,0.9,0.5c0.1,2,0.6,4.2-0.1,5.8c-0.7,1.6-0.6,2.8,0.5,3.6
		c1.6,1.2,3.4,2.3,5.3,2.7c1.9,0.4,2.4,1.1,2.4,2.9c0,3.6,1.5,4.8,5.2,4.7c1,0,2.1,0.2,2.8,0.8c0.4,0.3,0.2,2-0.3,2.4
		c-0.7,0.5-1.8,0.3-2.8,0.4c-0.4,0-0.7,0.1-1.3,0.2c0.4,2.1,1.7,2.3,3.3,2.1c3.9-0.5,3.9-0.5,5.1,3.1c0.7,2.2,6.9,3.8,8.4,2
		c0.4-0.5,0.3-2-0.2-2.4c-1.1-0.9-2.5-1.5-3.7-2.2c-0.7-0.3-1.5-0.5-2.2-0.8c1-4,0.1-5.3-3.8-6.1c-0.3-0.1-0.8,0-0.9-0.2
		c-1-1.2-2-2.4-2.9-3.7c-0.1-0.2,0.4-1.2,0.5-1.2c1.3,0.2,2.7,0.3,3.9,0.9c1,0.5,1.7,1.7,2.7,2.4c1.6,1,3.3,1.8,4.9,2.8
		c0.9,0.6,2,1.3,2.5,2.3c1.6,3.4,4.2,3.9,6.7,1.1c0.5-0.5,1.4-1.1,1.9-1c0.6,0.2,1.2,1.1,1.4,1.8c0.8,2.8,0,4.2-2.8,5
		c-1.8,0.6-2.2,1.7-0.9,3c2,2,6.7,0.9,7.7-1.7c0.9-2.5,2.4-3.2,5-2.4c1.5,0.5,3.1,0.9,4.7,1.3c1.8,0.4,3,1,1.9,3.1
		C236.3-252.6,236.3-251.9,236.1-250.6z M176.7-280.7c0.1-1.7-0.5-2.6-2.1-2.6c-2,0-4.5,1.5-4,2.3c0.9,1.4,2.3,3,3.7,3.3
		C176.5-277.2,176.4-279.5,176.7-280.7z M232.9-222.8c1.1-1.1,1.7-1.7,2.4-2.4c-1.2-0.7-2.2-1.7-3.5-2.1c-0.4-0.1-1.3,1.1-1.9,1.6
		C230.8-224.9,231.7-224,232.9-222.8z M283.4-244.4c0.1-0.2,0.2-0.3,0.3-0.5c-0.9-0.8-1.8-1.7-2.7-2.4c-0.3-0.3-1-0.1-1.5-0.2
		c0.2,0.5,0.2,1.3,0.6,1.5C281.1-245.3,282.2-244.9,283.4-244.4z"/>
	<path class="st2" d="M316.6-484c0.6,0.2,1.1,0.5,1.7,0.5c4.9,0.6,9.9,0.9,14.8,1.7c3.1,0.5,6.1,1.7,9.1,2.8c3.5,1.3,7,2.8,10.4,4.3
		c2.5,1.1,3.8,3.4,5.2,6.6c-2.7,0-4.9-0.1-7.1,0c-1.6,0.1-3.4,0.2-4.6,1.1c-2,1.4-4,1.7-6.2,1.6c-1.5,0-3,0-4.4,0.3
		c-0.7,0.1-1.2,1-1.7,1.7c-0.4,0.5-0.6,1.3-1.1,1.7c-1.8,1.5-1.7,2.9,0.5,3.8c0.8,0.3,1.6,0.5,2.5,1.4c-0.9,0.4-1.8,0.8-2.8,1.2
		c0,0.2-0.1,0.4-0.1,0.5c0.7,0.2,1.5,0.5,2.2,0.6c2.9,0.5,5.7,1,8.6,1.3c1.3,0.1,2.7-0.4,4-0.3c0.8,0,1.6,0.6,2.4,1
		c-0.8,0.4-1.5,0.8-2.4,1.1c-1.4,0.4-2.8,0.6-4.2,0.9c-3.5,0.6-7,1.6-10.5,1.6c-6.4,0-12.9-0.3-19.2-1.3c-4.5-0.7-8.7-2.9-13-4.5
		c-4.1-1.5-6.9-4.7-10.2-7.4c-0.6-0.5-0.7-1.8-1-2.7c1-0.3,2-1,3-0.9c1.7,0.2,3.4,1.1,5.2,1.3c0.9,0.1,1.8-0.7,2.7-1.2
		c-0.8-0.6-1.6-1.5-2.5-1.6c-1.4-0.3-2.9-0.1-4.4-0.1c-1.8,0.1-3-0.5-3.4-2.4c-0.2-1-0.9-1.9-1.2-2.9c-0.8-2.6-2.1-4.1-5.1-3.6
		c-1.9,0.3-3-0.8-3.4-2.7c-0.7-2.9-0.3-5.5,2-7.6c2.4-2.2,3.8-5.3,7.3-6.3c0.5-0.1,1-1.3,0.9-2c0-0.5-0.9-1.1-1.5-1.3
		c-4.3-1.3-4.3-1.3-4.7-5.7c-0.1-1.1-0.6-2.5-1.4-3.3c-1.7-1.8-1.3-3.5,0-5c2-2.3,4.3-4.5,6.4-6.7c0.2-0.2,0.5-0.5,0.8-0.5
		c6.2-1.3,12.1-4.4,18.8-3.2c4.4,0.7,8.9,1,13.4,1.3c3.6,0.2,7.1-0.1,10.7,0.1c4.4,0.2,8.8,0.6,13.1,1c2.1,0.2,4.2,0.9,4.3,3.7
		c0.1,1.5,1.1,2.2,2.6,1.8c2.1-0.6,3,0.3,3.3,2.4c0.1,0.5,0.3,1.1,0.6,1.6c1,1.6,0.8,2.7-1.2,3.2c-2,0.5-1.4,2.3-1.3,3.7
		c0.1,1.5-0.3,2.2-1.9,1.7c-3.5-1.1-7.1-2.3-10.6-3.2c-3-0.8-6-1.2-9-1.8c-4.7-1-8.7,1.3-12.9,2.8c-0.7,0.2-1.4,0.5-2.1,0.6
		c-4,0.7-3.9,0.7-4.8,4.8c-0.1,0.5-0.4,1.1-0.6,1.6c-1.3,2.5-0.2,4.1,2.5,4.1c3.9,0,7.8,0.2,11.7,0.4c0.6,0,1.2,0.7,1.9,1
		c-0.6,0.4-1.2,1.1-1.8,1.3c-2.3,0.6-4.6,0.9-6.9,1.5c-1.2,0.3-2.3,1.1-3.5,1.7C316.4-484.4,316.5-484.2,316.6-484z M311.1-469.8
		c0.1-0.3,0.3-0.6,0.4-0.9c-0.7-0.6-1.3-1.6-2-1.6c-0.6-0.1-1.2,1-1.8,1.6c0.1,0.2,0.2,0.5,0.3,0.7C309-470,310.1-469.9,311.1-469.8
		z"/>
	<path class="st2" d="M307.7-352.9c-0.7-0.8-1.2-1.5-1.8-2.2c-2.3-2.5-3.9-2.9-6.9-1.3c-1.8,1-3.6,1.1-5.4,0.2c-3-1.6-5.7-1-8.1,1.1
		c-1,0.8-1.8,0.6-3,0.4c-2.6-0.5-5.5-0.9-7.8-0.1c-4.2,1.5-8.2,2.4-12.5,1.4c-3.2-0.7-6.3-0.2-9.2,1.3c-0.7,0.4-1.8,0.2-2.7,0
		c-1.6-0.3-3.2-1-4.8-1.2c-2.5-0.3-5-0.4-7.5-0.4c-1.7,0-3.4,0.1-5.1,0.3c-2.4,0.3-3.9,1.5-3.7,4.2c0,0.5-0.1,1.1-0.3,1.8
		c-0.8-0.2-1.5-0.4-2.2-0.5c-1.9-0.3-3.3,0.4-3.3,2.5c0,1.5-0.3,2.4-2.1,2.5c-1.8,0.1-2.3,2-0.8,3.5c1.8,1.8,3.7,3.5,4.8,6
		c0.9,1.9,2.8,0.7,3.6-0.5c1.3-1.8,2.6-1.6,4.4-1.1c1.3,0.4,3-0.2,4.4-0.5c0.8-0.1,1.7-0.9,2.2-0.7c1.4,0.7,2.5,1.7,3.8,2.7
		c-1,0.9-1.8,2.2-2.9,2.5c-4.4,0.9-8.8,1.4-13.2,2.1c-0.4,0.1-1-0.1-1.3-0.4c-2.6-1.9-3.2-1.8-4.7,1c-0.1,0.2-0.3,0.4-0.7,1
		c-0.6-0.8-1.3-1.4-1.4-2c-0.2-1.8-1.1-2.7-2.6-3.5c-6.5-3.3-12.3-7.5-17.4-12.7c-2.6-2.7-5.9-2.4-9-2.7c-1.5-0.1-2.5,1.1-2.1,2.9
		c0.2,0.8,0.5,1.5,0.7,2.3c0.2,0.9,0.2,1.7,0.4,2.6c-0.8-0.3-1.7-0.3-2.4-0.8c-3-1.8-4.9-4.6-6-7.8c-0.3-0.8,0.2-1.8,0.3-2.8
		c0.7,0.2,1.6,0.2,2.2,0.5c1.5,0.7,2.5,0.7,3.5-0.8c1.1-1.7,1.4-3.4,0.1-4.9c-0.2-0.3-1.5,0.2-2.2,0.4c-1,0.3-1.9,0.6-2.9,0.9
		c-0.6,0.2-1.2,0.3-1.8,0.5c-2.1,0.8-3.6,0-3.9-2.2c-0.6-5.6,0.9-10.9,3.1-16c0.3-0.8,0.7-1.7,0.7-2.6c0.3-3.6,2.1-6.4,4.4-9
		c3.2-3.8,6.2-7.7,9.5-11.4c1.6-1.8,3.8-3.2,5.9-4.5c1.8-1.2,3.8-2.1,5.8-3.1c1.7-0.8,2.6-0.2,2.2,1.7c-1,3.8-2.3,7.6-3.6,11.4
		c-0.2,0.6-1.4,1.1-2.2,1.3c-2.4,0.6-4.1,1.7-5,4.1c-0.3,0.9-1.2,1.7-1.8,2.5c-0.5,0.7-0.8,1.5-1.4,2.2c-0.6,0.8-1.3,1.8-2.1,2.1
		c-1.7,0.6-2.5,1.4-1.8,3.2c0.2,0.6,0.2,1.3,0.5,1.9c0.3,0.7,0.8,1.3,1.2,1.9c0.8-0.5,1.7-0.9,2.2-1.6c0.4-0.7,0.5-1.7,0.4-2.6
		c-0.1-1.4,0.2-2.3,1.6-2.5c1.1-0.2,2.3-0.2,3.4-0.3c0.1,1.3,0.2,2.5,0.2,3.8c0,0.5-0.4,1-0.6,1.5c1,1,2.1,1.8,2.9,2.8
		c0.5,0.7,1.2,2.2,0.9,2.6c-0.6,0.7-1.9,1.4-2.8,1.3c-4.3-0.3-4.4-0.1-4.5,4.3c0,1.4-1,2.7-1.5,4c-0.2,0.7-0.7,1.7-0.4,2.2
		c0.3,0.5,1.3,0.8,2.1,0.8c8.5,0.4,16.7-1.1,24.7-4.1c2.1-0.8,4.5-0.6,6.7-1.2c8.3-2.4,16.9-1.5,25.4-2.5c3.2-0.4,6.7,1.1,10.1,1.5
		c1.9,0.3,3.9,0.3,5.8,0.4c0.8,0.1,1.8,0,2.4,0.4c1.7,1.1,2.9,1.4,3.7-0.9c0.1-0.2,0.3-0.5,0.5-0.5c3.1-0.4,6.2-0.7,9.3-1
		c1-0.1,2.2,0,3.1-0.4c1.8-0.7,3.3-0.8,4.7,0.7c1.3,1.5,2.9,1.8,4.8,1.6c2.8-0.4,5.6-0.4,8.4-0.6c0.2,0,0.5,0,0.7,0.1
		c5.5,3.4,11.9,2.8,17.8,3.9c2.6,0.5,5.3-0.4,8-0.6c1-0.1,2.1-0.3,2.8,0.1c0.6,0.4,1.3,1.9,1,2.4c-1.5,2.5-3,5.3-5.1,7.3
		c-2.6,2.5-5.7,4.5-8.9,6.3c-2.3,1.3-4.9,1.9-7.5,2.6c-1.9,0.5-1.9-0.9-1.3-2.1c1.4-3,1.1-6,0.3-9.1
		C312.1-354.2,310.6-354.7,307.7-352.9z"/>
	<path class="st2" d="M264.4-390c1.7,1.9,3.4,1.9,5.3,2c3.6,0.1,7.2,0.7,10.8,0.8c3.1,0.1,5.5,1.1,7.4,3.5c1.1,1.3,1.1,2.1-0.4,3.1
		c-1.9,1.4-3.5,3.1-5.4,4.5c-0.8,0.6-1.8,1.2-2.7,1.2c-5,0.1-9.8,1.1-14.5,2.6c-1.3,0.4-2.9,0.3-4.3,0.1c-3.1-0.6-6.1-1.7-9.2-2.2
		c-1.9-0.3-3.9,0-5.8,0.3c-2.9,0.3-3.1,0.1-3.2-2.8c0-0.7-0.9-1.7-1.6-2c-1.1-0.4-2.4-0.5-3.5-0.4c-0.4,0-1.1,0.8-1.2,1.4
		c-0.8,4.7-1.7,5.4-6.6,4.5c-2.5-0.5-4.9-1.3-7.9-2.1c0.9-1.8,1.8-3.9,2.9-5.7c0.7-1.1,1.4-1.8,0.2-2.9c-0.3-0.3-0.4-0.8-0.5-1.2
		c0.3-0.2,0.5-0.4,0.5-0.3c2.3,2.1,4.4,1.6,6.7-0.1c1-0.7,2.5-0.8,3.6-1.3c0.5-0.2,1.1-0.9,1.1-1.4c0-0.5-0.6-1.2-1.1-1.4
		c-3.4-1.1-4.3-4.3-6.1-6.7c-1.1-1.4,0.5-2,1.4-2c2.5,0.1,3.7-1.2,5.1-3c0.9-1.2,2.5-2.2,4-2.6c3.8-1.1,7.7-1.9,11.6-2.6
		c4.1-0.8,7.4,1,9.8,4.2c0.8,1,0.8,2.7,1.2,4c0.2,0.7,0.5,1.8,1,2c0.6,0.2,1.6-0.2,2.1-0.7c1.1-1,1.9-2.2,2.9-3.3
		c1.4-1.7,2.9-1.5,3.3,0.6c0.5,2.2,0.8,4.6,0.5,6.7c-0.3,2-1.7,3.7-4.3,3.5C266.5-390.1,265.7-390,264.4-390z M255.2-393.6
		c1-1.1,1.6-1.9,2.2-2.6c-0.9-0.6-1.8-1.7-2.7-1.7c-0.8,0-1.5,1.3-2.3,2C253.2-395.3,253.9-394.6,255.2-393.6z"/>
	<path class="st2" d="M353-375.7c-0.8-0.6-1.8-1.1-2.5-1.9c-3.3-3.6-6.3-7.5-9.7-10.9c-2.3-2.3-5.2-4.1-7.7-6.3
		c-3.1-2.7-6.3-5.4-9-8.5c-1.7-2-2.4-4.9-3.5-7.4c-0.1-0.3,0.4-1.3,0.6-1.3c1-0.1,2.2-0.2,3,0.3c1.9,1.4,3.6,3.1,5.5,4.6
		c1.7,1.3,3.4,2.5,5.2,3.6c2.5,1.7,4.7,3.4,6.4,6.1c2.2,3.5,5.4,6.5,7.8,9.9c1.7,2.4,3.1,5,4.3,7.6c0.5,1.1,0.2,2.6,0.3,4
		C353.5-375.9,353.3-375.8,353-375.7z"/>
	<path class="st2" d="M254.6-318.2c3.4-3.1,6.7-2.2,10-1.3c1,0.3,2.1,0.2,3.1,0c4.2-0.9,8.3-2,12.5-2.9c1.7-0.4,3.6-0.1,5.3-0.4
		c2.4-0.4,4.2,0.5,6.3,2.2c-1.1,0.6-1.9,1.3-2.9,1.6c-2.4,0.8-4.7,1.7-7.2,2.2c-1.6,0.3-3.3,0-4.9,0c-0.6,0-1.2-0.3-1.7-0.1
		c-3.9,1.6-8,0.7-11.9,0.6C260.4-316.3,257.7-317.5,254.6-318.2z"/>
	<path class="st2" d="M300-402.8c0,3.1-3.4,7-5.6,7.3c-0.5,0.1-1.2-0.1-1.5-0.5c-2.1-2.5-5.1-2.6-7.9-3.3c-1.1-0.3-2.8-0.8-3-1.5
		c-0.2-1,0.5-2.5,1.2-3.5c3.6-5,9.4-3.4,14-0.8C298.4-404.4,299.4-403.4,300-402.8z"/>
	<path class="st2" d="M192.8-291.6c0.8,2.3,1.2,4.6,2.4,6.5c0.9,1.5,2.5,2.7,4,3.6c1.5,0.9,2.8,1.6,2.2,3.5
		c-0.6,1.9-2.2,1.4-3.7,1.4c-1.1,0-2.4,0.3-3.2,1c-2.1,1.8-3.5,1.7-4.5-0.9c-0.7-1.9-1-3.9-1.6-5.8
		C186.8-287.3,187.7-289.2,192.8-291.6z"/>
	<path class="st2" d="M160.1-371.4c3.8,3.5,6.2,14.6,4.1,18.7C160.6-354.9,158.3-365.3,160.1-371.4z"/>
	<path class="st2" d="M360.6-474.3c-4.2-3.2-7.9-6.9-12.3-9.2c-4.4-2.3-9.5-3.1-14.7-4.6C341.1-491.5,360.9-480.2,360.6-474.3z"/>
	<path class="st2" d="M212.2-370.3c-0.9-0.7-2.1-1.3-2.7-2.2c-0.4-0.6-0.1-1.9,0.3-2.7c0.5-1,1.4-1.8,2.3-2.5c1.4-1.2,2.8-1.6,4.2,0
		c0.5,0.6,1.3,1,2.1,1.3c1.8,0.7,2,1.9,0.6,2.8C217-372.3,214.7-371.4,212.2-370.3z"/>
	<path class="st2" d="M97.2-442.2c1.7,1.4,3.1,2.3,4.1,3.6c1,1.2,1.7,2.8,2.4,4.2c0.2,0.5,0.1,1.4-0.3,1.7c-0.4,0.5-1.3,0.9-1.9,0.8
		c-3.2-0.7-6-4.8-5.6-8C96.1-440.5,96.6-441,97.2-442.2z"/>
	<path class="st2" d="M250-318.4c-0.7,0.3-1,0.5-1.3,0.6c-3.6,1-7.1,0.9-10.2-1.3c-0.7-0.5-0.7-1.9-1-2.8c0.9-0.2,1.8-0.4,2.7-0.5
		c1.2,0,2.5,0.1,3.7,0.2c0.7,0.1,1.4,0.3,1.9,0.7C247-320.6,248.2-319.7,250-318.4z"/>
	<path class="st2" d="M225.9-325c2,0,4.1,0,6.1,0c1.4,0,3.7,2.4,3.4,3.9c-0.1,0.4-1.2,1-1.7,0.9c-2.5-0.6-5-1.3-7.4-2
		c-0.5-0.1-0.9-0.4-1.2-0.7c-0.4-0.5-0.9-1.1-0.7-1.6c0.1-0.4,1-0.6,1.5-0.9C225.8-325.3,225.8-325.2,225.9-325z"/>
	<path class="st2" d="M93.4-155.9c1.5-1,2.6-2.1,3.3-2c1.6,0.4,4.7-0.2,4.4,2.1c-0.2,1.6-2.8,2.9-4.4,4.3
		C95.8-152.7,94.8-154,93.4-155.9z"/>
	<path class="st2" d="M95.1-162c0.5-1.3,1.3-2.4,1.2-3.3c-0.1-0.9-1.3-1.6-2.1-2.5c2-0.9,5.9-0.6,6.6,0.4c0.9,1.3,0.1,3.4-2.1,5.2
		C97.5-161.4,96.2-160.7,95.1-162z"/>
	<path class="st2" d="M254.1-332.1c-2.4,2.5-6.3,2.6-8.3,0.1C248-334,252.4-334.1,254.1-332.1z"/>
	<path class="st2" d="M179.5-558.2c-3.5-3-2-6.7-2.2-10.2C179.5-567.2,180.5-562.3,179.5-558.2z"/>
	<path class="st2" d="M263.4-297.8c-1.1-1-1.8-1.6-2.5-2.2c1.2-0.9,2.3-2.2,3.6-2.6c0.6-0.2,1.7,1.2,2.6,1.9
		C265.9-299.8,264.8-298.9,263.4-297.8z"/>
	<path class="st2" d="M302.5-337.6c1.2-1.2,1.8-2.1,2.6-2.4c1.1-0.3,2.4-0.2,3.6,0.1c0.4,0.1,0.9,1.3,0.7,1.8
		c-0.1,0.5-1,1.2-1.6,1.2C306.2-336.9,304.6-337.3,302.5-337.6z"/>
	<path class="st2" d="M291.8-383.8c1.3-1.1,2.6-2.2,3.9-3.2c0.3,0.1,0.6,0.2,0.8,0.4c-0.1,0.9,0,2.2-0.5,2.6c-1,0.8-2.4,1-3.6,1.5
		C292.2-382.9,292-383.4,291.8-383.8z"/>
	<path class="st2" d="M98.5-142.6c0.8,1.1,1.7,1.7,1.7,2.2c-0.1,1-0.7,2-1.2,2.9c-0.1,0.2-0.8,0.1-1.3,0.2c-0.1-0.9-0.3-1.8-0.2-2.7
		C97.5-140.7,97.9-141.3,98.5-142.6z"/>
	<path class="st2" d="M412.8-408.4c0.7,1.2,1.5,2.3,1.9,3.6c0.2,0.5-0.4,1.3-0.7,2c-0.6-0.5-1.6-0.9-1.7-1.5
		c-0.3-1.2-0.1-2.6-0.1-3.8C412.4-408.3,412.6-408.4,412.8-408.4z"/>
	<path class="st2" d="M225.3-405.9c0.4,1.3,0.9,2.5,1.2,3.9c0.1,0.4-0.3,1.2-0.7,1.3c-0.3,0.1-1.2-0.2-1.4-0.6
		c-0.9-1.5-1-3.1,0.1-4.6C224.7-405.8,225-405.9,225.3-405.9z"/>
	<path class="st2" d="M243.8-213.7c-1.3,1-2.1,1.9-2.7,1.9c-0.7,0-1.3-1-1.9-1.6c0.6-0.6,1.1-1.5,1.7-1.6
		C241.5-215.1,242.3-214.4,243.8-213.7z"/>
	<path class="st2" d="M274.1-298.9c-1.4,0.8-2.2,1.6-3.1,1.7c-0.6,0.1-1.2-0.9-1.8-1.4c0.8-0.6,1.5-1.3,2.4-1.6
		C272.1-300.4,272.8-299.6,274.1-298.9z"/>
	<path class="st2" d="M90.1-81.8c-0.9-0.6-1.5-1-2-1.5c0.8-0.7,1.6-1.6,2.5-2c0.3-0.1,1.1,1,1.7,1.6C91.6-83.1,91-82.5,90.1-81.8z"
		/>
	<path class="st2" d="M301.9-338.5c-1.1,0.7-1.7,1.3-2,1.2c-0.8-0.4-1.6-1-2.2-1.7c-0.1-0.1,0.9-1.5,1-1.4
		C299.7-340,300.5-339.3,301.9-338.5z"/>
	<path class="st2" d="M514.4-199.1c-0.9,0-2.1,0.4-2.7-0.1c-0.6-0.5-0.6-1.7-0.9-2.6c0.2-0.2,0.5-0.3,0.7-0.5c1,0.7,2.1,1.5,3.1,2.2
		C514.6-199.7,514.5-199.4,514.4-199.1z"/>
	<path class="st2" d="M81.6-87.9c0.9-0.4,1.7-0.9,2.6-1.3c0.3,0.5,0.5,1,0.8,1.6c-0.9,0.3-1.9,0.7-2.8,1
		C81.9-87.1,81.7-87.5,81.6-87.9z"/>
	<path class="st2" d="M262.3-330.8c-1.6,2.1-2.8,1.9-4.6,0C259.5-330.8,260.7-330.8,262.3-330.8z"/>
	<path class="st2" d="M269.4-205.8c-0.8,0.6-1.6,1.4-1.7,1.3c-0.6-0.5-1.1-1.1-1.4-1.7c-0.1-0.2,0.8-1.1,1-1
		C267.9-207,268.4-206.5,269.4-205.8z"/>
	<path class="st2" d="M493.1-134.6c-0.8-0.4-1.6-0.7-2.3-1.1c-0.1-0.1,0.3-0.9,0.5-1.4c0.8,0.4,1.6,0.8,2.4,1.2
		C493.5-135.4,493.3-135,493.1-134.6z"/>
	<path class="st2" d="M495.4-126.6c-1.7,0-3.3,0-5,0c0-0.3,0-0.6,0.1-0.9c1.7,0.1,3.3,0.3,5,0.4
		C495.5-126.9,495.4-126.8,495.4-126.6z"/>
	<path class="st2" d="M212.8-217.8c-0.2-0.6-0.7-1.2-0.5-1.4c0.4-0.6,1-1,1.6-1.4c0.2-0.1,0.7,0.6,1.1,0.9
		C214.5-219.1,213.9-218.7,212.8-217.8z"/>
	<path class="st2" d="M130.2-347.4c0.2,3.1,0,3.3-2.8,3.5C128.3-345.1,129.1-346.1,130.2-347.4z"/>
	<path class="st2" d="M225.9-215.9c-0.9,0.5-1.4,1-1.7,0.9c-0.5-0.1-0.9-0.7-1.4-1c0.4-0.3,0.8-0.9,1.2-0.9
		C224.5-217,224.9-216.5,225.9-215.9z"/>
	<path class="st2" d="M268.6-332.4c1.2,0,2.1,0,3.1,0C270.4-330.1,270.1-330.1,268.6-332.4z"/>
	<path class="st1" d="M248.7-570.9c-0.1,0.3-0.1,1.1-0.5,1.7c-0.5,0.8-1.2,1.6-1.8,2.3c-0.5-0.7-1-1.6-1.7-2.2
		c-1.6-1.7-3.3-3.3-4.9-5c-0.5-0.5-1.3-1.5-1.1-1.8c0.5-0.9,1.2-1.8,2.1-2.1c1.9-0.6,7.8,4.2,7.9,6.2
		C248.7-571.7,248.7-571.5,248.7-570.9z"/>
	<path class="st1" d="M295.9-592.6c0.1,1.7-2.7,4.6-4,4.6c-0.3,0-0.8-0.1-0.9-0.3c-0.8-2.4-1.7-4.7-2.4-7.2
		c-0.1-0.3,0.7-1.1,1.2-1.3c0.3-0.1,0.9,0.4,1.4,0.7c1.1,0.8,2.2,1.7,3.3,2.5C295-593.3,295.6-592.9,295.9-592.6z"/>
	<path class="st1" d="M229.9-581.1c3.8-1.4,5.6-0.4,5.7,2.9c0,0.5-0.3,1.5-0.6,1.6c-0.6,0.2-1.6,0.1-2-0.3
		C231.9-578.2,231-579.6,229.9-581.1z"/>
	<path class="st1" d="M408.6-606.6c-0.4-0.8-0.7-1.5-1.2-2.3c-0.4-0.7-1-1.3-1.8-2.3C408.5-610.3,409.3-609.1,408.6-606.6z"/>
	<path class="st1" d="M221.6-458.4c3-0.9,5.3-1.7,7.9-2.5C229.1-458.1,225.6-457,221.6-458.4z"/>
	<path class="st1" d="M215-463.7c-1.2,0.9-1.9,1.5-2.8,2c-0.1,0-1.2-1.2-1-1.4c0.4-0.8,1-1.5,1.8-1.9
		C213.2-465.2,213.9-464.4,215-463.7z"/>
	<path class="st1" d="M195.3-455.1c1.3,0,2.7,0,4,0c-1.3,1.8-2.6,1.8-4,0.8C195.3-454.6,195.3-454.8,195.3-455.1z"/>
	<path class="st1" d="M176.7-280.7c-0.3,1.2-0.2,3.5-2.3,3c-1.4-0.3-2.8-1.9-3.7-3.3c-0.6-0.8,2-2.3,4-2.3
		C176.3-283.3,176.8-282.4,176.7-280.7z"/>
	<path class="st1" d="M232.9-222.8c-1.3-1.2-2.2-2-3.1-2.9c0.7-0.6,1.5-1.8,1.9-1.6c1.3,0.4,2.4,1.4,3.5,2.1
		C234.7-224.6,234-223.9,232.9-222.8z"/>
	<path class="st1" d="M283.4-244.4c-1.1-0.5-2.3-0.9-3.3-1.6c-0.4-0.2-0.4-1-0.6-1.5c0.5,0,1.1-0.1,1.5,0.2c1,0.7,1.8,1.6,2.7,2.4
		C283.5-244.7,283.5-244.6,283.4-244.4z"/>
	<path class="st1" d="M311.1-469.8c-1-0.1-2.1-0.1-3.1-0.2c-0.1-0.2-0.2-0.5-0.3-0.7c0.6-0.6,1.3-1.7,1.8-1.6c0.7,0.1,1.3,1.1,2,1.6
		C311.3-470.4,311.2-470.1,311.1-469.8z"/>
	<path class="st1" d="M255.2-393.6c-1.2-1-2-1.7-2.7-2.3c0.8-0.7,1.5-2,2.3-2c0.9,0,1.8,1.1,2.7,1.7
		C256.8-395.5,256.1-394.7,255.2-393.6z"/>
</g>
<g>
	<path d="M54.8,49c0,0,1.2-2.5,6-2.4c3.5,0,7.3,3.6,7.3,3.6s-3.1-1.4-4.5-1.8c-1.9-0.6-2.9-0.9-4.2-0.7c-1.6,0.2-3.4,0.9-3.4,0.9
		L54.8,49z"/>
	<path d="M44.1,50c0,0-0.3-2.3-5.2-2.2c-3.5,0-8.6,4-8.6,4s3.9-1.9,5.3-2.4c4.2-1.3,7,0.6,7,0.6L44.1,50z"/>
	<path d="M36,49.7c0,1.2,1,2.3,2.3,2.3c1.2,0,2.3-1,2.3-2.3c0-1.2-1-1.3-2.3-1.3C37,48.4,36,48.5,36,49.7z"/>
	<path d="M58.1,48.2c0,1.2,1,2.3,2.3,2.3c1.2,0,2.3-1,2.3-2.3s-1-1.3-2.3-1.3C59.1,46.9,58.1,47,58.1,48.2z"/>
	<path d="M25.8,66c0,0-1.3-13.8-1-17.6s1.1-5.2,1.1-5.2s-1.7-8.8,1.6-12.3c1.8-1.9,7.1-6.4,12-7.5c4-0.9,8.9,0.9,13,1.3
		c9.1,1,9.2-1.8,9.2-1.8s10.1,4.5,10.3,6.7s1.2,11.8,1.8,14.1c0.7,2.3,2.5,12.8,2.6,14.1s0.8,2.4,0.8,2.4s0.5-6.7,1.2-9.2
		s0.9-18.8,0.9-18.8s-0.1-4-0.7-6.7c-0.6-2.7-1.3-4.3-3.3-4.6c-2-0.3-3.7-0.9-3.7-0.9s0.7-1.7-1.2-2.7c-1.9-1-3.2-3.3-4.4-4.1
		c-1.2-0.8-3.8-3.5-5.7-4c-1.8-0.6-5-0.7-5-0.7S55.2,7.5,54,7.8c-1.2,0.3-2.7,0.7-4.2,0.2c-1.5-0.5-3.6,0.6-5.7,0.8
		c-3.4,0.3-4.5,0.4-6,1.7s-3.2,2.5-4,3.2c-0.8,0.6-2.1-0.7-3.8,0.8s-2.7,1.8-3.8,2.5c-1.1,0.6-5.2,5.2-5,7.6s0.4,3.5-0.3,4.3
		s-2.7,3.5-3.2,7.9s1.6,10.9,2,14.9C20.3,54.6,25.8,66,25.8,66z"/>
	<path d="M36.5,72.9c0,0,2.1-0.6,4.7-1.3c2-0.6,4.4-1.5,5.6-1.5c2.7-0.1,4.4,0.2,4.4,0.2s1.6-0.2,3.1-0.2c1.5,0.1,4.9,0.8,6.6,0.9
		c1.7,0.1,4-0.1,4-0.1s-2.1,1.8-3.7,2.5c-1.5,0.7-2.3,1.1-2.3,1.1s1.4-2.4-2.3-2.7c-3.7-0.4-5.3,0.1-5.3,0.1s-4.2-0.6-6.9,0.1
		c-2.8,0.7-3.9,1.4-3.9,1.4s0.8,2,3,3.3c2.2,1.3,2.2,1.3,2.2,1.3s-5-1.9-6-3.1c-1-1.2-1-1.2-1-1.2L36.5,72.9z"/>
	<path d="M32.7,71.4c0,0,0.2-3.9,3.5-6.5s4.9-3.4,4.9-3.4s-1.6,1.6-3.4,3.6C35.9,67,33.7,67.9,32.7,71.4z"/>
	<path d="M61.3,60.8c0,0,3.4,1,5.3,4.6c1.8,3.6,1.8,3.6,1.8,3.6s-3.1-3.9-3.6-4.8C64.3,63.5,61.3,60.8,61.3,60.8z"/>
	<path d="M21.6,55.1c0,0-3-1.4-3,4.7c0,5.2,0,7.4,2.4,10.9c2.7,3.9,5.5,2.6,5.5,2.6s-5.5-0.7-6.6-6.6c-0.6-3.2-0.7-6.3-0.7-7.4
		c0-1,0-3.4,1.8-2.7c1.6,0.6,2.1,4,1.3,6.1S22,65.5,22,65.5s0.7-2.6,1.2-2.8c0.5-0.2,1.9-1.2,1.9-1.2L24,57.1L21.6,55.1z"/>
	<path d="M77.9,49.1c0,0,1.6-0.8,2.4,1.1s0.1,11.3,0.1,11.3s0,3.5-2.1,5.6c-0.8,0.8-1.1,0.6-1.5,0.6c-0.9-0.1-0.5-2.8-0.5-2.8
		s0,2.7,1.9,1c1.1-1,1.5-2.2,1.7-4.5c0.2-2.3,0.2-11.3-1.3-10.4c-1.5,0.9-1.7,3.1-1.6,2.8C77,53.7,77.9,49.1,77.9,49.1z"/>
	<path d="M43.9,64.3c0,0,2.5-1.9,3.6-1.3s2.3,0.8,0.7,0.9S43.9,64.3,43.9,64.3z"/>
	<path d="M52.3,64.3c0,0,0.6-0.2,1.5-1.4c0.9-1.2,1.2-0.5,2.3-0.5c1.1,0.1,2,1.9,0.1,1.5S52.3,64.3,52.3,64.3z"/>
	<path d="M45.4,80.8c0,0,1.7,1.1,6,0.8s5.4-0.8,5.4-0.8s-1.9,1.6-5.5,1.8C47.7,82.8,45.4,80.8,45.4,80.8z"/>
	<path d="M27.6,75.7c0,0-0.1,6.1,8.8,13.5c1.9,1.5,7,6.4,11.4,7.1c8.5,1.3,11.6-0.9,13.2-1.8c1.5-0.9,3.3-3.2,4.2-4.4
		c0.9-1.1,7.6-8.5,9.5-14.2c1.4-4.3,1.7-8.8,1.7-8.8s-1.4,10.1-6.3,16.1c-3.2,3.9-4.1,5.1-5.9,7.1c-1.5,1.8-6.2,6.3-13,5.7
		c-8.4-0.8-11.1-5.8-13.4-7.3C31.6,84.7,27.6,75.7,27.6,75.7z"/>
	<path d="M54.6,42.5c0,0,1.7-1.8,3.3-1.9c1.6-0.1,3.7,0.1,5.4,0.2s2.9,0.1,4.1,0.9c1.1,0.8,1.6,2.2,1.6,2.2s-2.3-1.5-4.8-1.6
		c-2.5-0.2-4.3-0.7-5.9,0c-1.6,0.7-1.3,0.8-2.2,0.9C55.2,43.3,54.6,42.5,54.6,42.5z"/>
	<path d="M44.9,43.1c0,0-1.8-1.7-3.4-1.8c-1.6,0-3.7,0.2-5.4,0.4c-1.7,0.1-2.9,0.2-4,1.1C31,43.6,30.6,45,30.6,45s2.2-1.6,4.7-1.8
		c2.5-0.3,4.2-0.9,5.9-0.2c1.7,0.7,1.3,0.8,2.2,0.8C44.2,43.8,44.9,43.1,44.9,43.1z"/>
	<path d="M54.5,45.5c0,0-1.7,1.7-1.9,2.9s0.7,3.8,0.8,5.3c0.1,1.6,0.4,0.2,0.2-2c-0.3-2.2,0-2.2,0-3.2
		C53.5,47.6,54.5,45.5,54.5,45.5z"/>
	<path d="M41.1,23.6c0,0,3.5,2.8,8.2,3s9.7-4.5,9.7-4.5S52.6,29,41.1,23.6z"/>
	<path d="M43.7,22.6c0,0,3.5,2.8,8.2,3c4.7,0.2,9.7-4.5,9.7-4.5S55.2,28,43.7,22.6z"/>
	<path d="M30.6,17.7c0,0,1.2-6.3,5.9-8.9s10.3-2.6,15.4-2.2c5.1,0.4,9.8,6.3,9.8,6.3h-6.9c0,0-3.1-3.8-10.7-3.9
		C36.5,8.7,34,11,30.6,17.7z"/>
	<path d="M35,14.2c0,0,0.7-5.4,3.7-7.7c2.9-2.3,6.4-2.3,9.5-1.9C51.3,5,54.2,10,54.2,10H50c0,0-1.9-3.3-6.6-3.4S37,8.5,35,14.2z"/>
	<path d="M20,30.9l-2,2.2c0,0-0.7,0.7,0,1.4c0.7,0.7,0.6,0,0.6,0s-1.2,1.2-1.2,1.6c0,0.4-0.7,1.7,0.6,2.1l2-3.7V30.9z"/>
	<path d="M20.4,30.9c0,0-1-3.4-0.4-5.3c0.6-1.9,3.2-3.5,3.2-3.5s-1.7,1.4-2.3,3.5c-0.6,2.1,1,4,1,4L20.4,30.9z"/>
	<path d="M52.7,6.6c0,0,7.1-0.2,9.9,2c2.8,2.2,3.8,4.7,2.7,6.6s-2.1,2.4-2.1,2.4L56,12L52.7,6.6z"/>
	<path d="M63.6,10.5c0,0,4.2,1.2,6,2.7c1.8,1.6,3.3,4.8,1.9,7.9c0,0,1.2-4.8-3.1-6.9s-5.8-0.6-5.8-0.6L63.6,10.5z"/>
	<path d="M61.9,11c0,0,4.2,1.2,6,2.7c1.8,1.6,3.3,4.8,1.9,7.9c0,0,1.2-4.8-3.1-6.9s-5.8-0.6-5.8-0.6L61.9,11z"/>
	<path d="M33,25c0,0,3.7,0.3,7.9-0.9s4.5-4.5,4.5-4.5s-1.8,2.6-5.5,4C36.1,25,33,25,33,25z"/>
</g>
</svg>
